<svg xmlns="http://www.w3.org/2000/svg" xmlns:xlink="http://www.w3.org/1999/xlink" width="48" zoomAndPan="magnify" viewBox="0 0 36 36.000001" height="48" preserveAspectRatio="xMidYMid meet" version="1.0"><defs><clipPath id="a858faf8a7"><path d="M 5.488281 4.359375 L 30.296875 4.359375 L 30.296875 30.628906 L 5.488281 30.628906 Z M 5.488281 4.359375 " clip-rule="nonzero"/></clipPath></defs><path fill="#ffffff" d="M 17.894531 10.863281 C 15.152344 10.863281 12.929688 13.210938 12.929688 16.109375 C 12.929688 19.011719 15.152344 21.359375 17.894531 21.359375 C 20.632812 21.359375 22.855469 19.011719 22.855469 16.109375 C 22.855469 13.210938 20.632812 10.863281 17.894531 10.863281 " fill-opacity="1" fill-rule="nonzero"/><g clip-path="url(#a858faf8a7)"><path fill="#ffffff" d="M 26.132812 26.550781 C 25.035156 23.851562 22.726562 22.160156 17.886719 22.160156 C 13.050781 22.160156 10.742188 23.847656 9.640625 26.542969 C 7.402344 24.253906 6.007812 21.046875 6.007812 17.496094 C 6.007812 10.550781 11.328125 4.921875 17.894531 4.921875 C 24.457031 4.921875 29.777344 10.550781 29.777344 17.496094 C 29.777344 21.050781 28.382812 24.265625 26.132812 26.550781 Z M 17.894531 4.371094 C 11.042969 4.371094 5.488281 10.246094 5.488281 17.496094 C 5.488281 21.285156 7.007812 24.699219 9.4375 27.09375 C 11.652344 29.277344 14.625 30.617188 17.894531 30.617188 C 21.15625 30.617188 24.125 29.285156 26.339844 27.105469 C 28.773438 24.710938 30.300781 21.289062 30.300781 17.496094 C 30.300781 10.246094 24.746094 4.371094 17.894531 4.371094 " fill-opacity="1" fill-rule="nonzero"/></g></svg>