<svg xmlns="http://www.w3.org/2000/svg" xmlns:xlink="http://www.w3.org/1999/xlink" width="48" zoomAndPan="magnify" viewBox="0 0 36 36.000001" height="48" preserveAspectRatio="xMidYMid meet" version="1.0"><defs><clipPath id="61a3401290"><path d="M 7.929688 6.929688 L 28.363281 6.929688 L 28.363281 28.089844 L 7.929688 28.089844 Z M 7.929688 6.929688 " clip-rule="nonzero"/></clipPath></defs><path fill="#ffffff" d="M 18.148438 12.164062 C 15.890625 12.164062 14.0625 14.058594 14.0625 16.394531 C 14.0625 18.730469 15.890625 20.625 18.148438 20.625 C 20.40625 20.625 22.234375 18.730469 22.234375 16.394531 C 22.234375 14.058594 20.40625 12.164062 18.148438 12.164062 " fill-opacity="1" fill-rule="nonzero"/><g clip-path="url(#61a3401290)"><path fill="#ffffff" d="M 24.933594 24.808594 C 24.03125 22.632812 22.128906 21.269531 18.140625 21.269531 C 14.160156 21.269531 12.257812 22.628906 11.351562 24.800781 C 9.507812 22.957031 8.359375 20.371094 8.359375 17.507812 C 8.359375 11.914062 12.742188 7.378906 18.148438 7.378906 C 23.554688 7.378906 27.9375 11.914062 27.9375 17.507812 C 27.9375 20.378906 26.785156 22.96875 24.933594 24.808594 Z M 18.148438 6.933594 C 12.503906 6.933594 7.929688 11.667969 7.929688 17.507812 C 7.929688 20.5625 9.183594 23.316406 11.183594 25.246094 C 13.007812 27.007812 15.457031 28.085938 18.148438 28.085938 C 20.835938 28.085938 23.277344 27.011719 25.101562 25.257812 C 27.109375 23.324219 28.363281 20.570312 28.363281 17.507812 C 28.363281 11.667969 23.789062 6.933594 18.148438 6.933594 " fill-opacity="1" fill-rule="nonzero"/></g></svg>