<svg xmlns="http://www.w3.org/2000/svg" xmlns:xlink="http://www.w3.org/1999/xlink" width="48" zoomAndPan="magnify" viewBox="0 0 36 36.000001" height="48" preserveAspectRatio="xMidYMid meet" version="1.0"><defs><clipPath id="8fe611368c"><path d="M 34.347656 33.859375 L 35.511719 33.859375 L 35.511719 35.027344 L 34.347656 35.027344 Z M 34.347656 33.859375 " clip-rule="nonzero"/></clipPath><clipPath id="2f740d2d63"><path d="M 10.996094 10.507812 L 24.859375 10.507812 L 24.859375 24.371094 L 10.996094 24.371094 Z M 10.996094 10.507812 " clip-rule="nonzero"/></clipPath></defs><g clip-path="url(#8fe611368c)"><path fill="#000000" d="M 41.277344 33.855469 C 37.449219 33.855469 34.347656 36.957031 34.347656 40.785156 C 34.347656 44.613281 37.449219 47.714844 41.277344 47.714844 C 45.105469 47.714844 48.207031 44.613281 48.207031 40.785156 C 48.207031 36.957031 45.105469 33.855469 41.277344 33.855469 Z M 39.382812 43.453125 L 43.6875 43.453125 C 44.246094 43.453125 44.703125 43.90625 44.703125 44.464844 C 44.703125 45.027344 44.246094 45.480469 43.6875 45.480469 C 43.128906 45.480469 42.671875 45.027344 42.671875 44.464844 C 42.671875 44.363281 42.6875 44.265625 42.71875 44.171875 L 39.800781 44.171875 C 39.828125 44.265625 39.84375 44.363281 39.84375 44.464844 C 39.84375 45.027344 39.390625 45.480469 38.828125 45.480469 C 38.269531 45.480469 37.816406 45.027344 37.816406 44.464844 C 37.816406 43.964844 38.179688 43.550781 38.65625 43.46875 L 38.476562 42.484375 L 38.476562 42.476562 L 37.527344 37.792969 L 36.660156 37.796875 L 36.652344 37.078125 L 38.117188 37.070312 L 38.46875 38.820312 L 45.023438 39.605469 L 44.191406 42.777344 L 39.261719 42.777344 Z M 39.382812 43.453125 " fill-opacity="1" fill-rule="nonzero"/></g><g clip-path="url(#2f740d2d63)"><path fill="#ffffff" d="M 15.152344 21.601562 C 14.386719 21.601562 13.773438 22.21875 13.773438 22.988281 C 13.773438 23.753906 14.386719 24.371094 15.152344 24.371094 C 15.921875 24.371094 16.539062 23.753906 16.539062 22.988281 C 16.539062 22.21875 15.921875 21.601562 15.152344 21.601562 Z M 10.996094 10.507812 L 10.996094 11.894531 L 12.382812 11.894531 L 14.875 17.152344 L 13.9375 18.851562 C 13.828125 19.050781 13.765625 19.277344 13.765625 19.519531 C 13.765625 20.285156 14.386719 20.90625 15.152344 20.90625 L 23.472656 20.90625 L 23.472656 19.519531 L 15.449219 19.519531 C 15.351562 19.519531 15.273438 19.445312 15.273438 19.347656 C 15.273438 19.316406 15.28125 19.289062 15.296875 19.265625 L 15.917969 18.132812 L 21.082031 18.132812 C 21.601562 18.132812 22.054688 17.847656 22.292969 17.417969 L 24.773438 12.921875 C 24.828125 12.824219 24.859375 12.710938 24.859375 12.585938 C 24.859375 12.203125 24.546875 11.894531 24.167969 11.894531 L 13.917969 11.894531 L 13.257812 10.507812 Z M 22.085938 21.601562 C 21.320312 21.601562 20.707031 22.21875 20.707031 22.988281 C 20.707031 23.753906 21.320312 24.371094 22.085938 24.371094 C 22.851562 24.371094 23.472656 23.753906 23.472656 22.988281 C 23.472656 22.21875 22.851562 21.601562 22.085938 21.601562 Z M 22.085938 21.601562 " fill-opacity="1" fill-rule="nonzero"/></g></svg>