<svg xmlns="http://www.w3.org/2000/svg" xmlns:xlink="http://www.w3.org/1999/xlink" width="48" zoomAndPan="magnify" viewBox="0 0 36 36.000001" height="48" preserveAspectRatio="xMidYMid meet" version="1.0"><defs><clipPath id="92435e9ceb"><path d="M 0.488281 0 L 35.511719 0 L 35.511719 35.027344 L 0.488281 35.027344 Z M 0.488281 0 " clip-rule="nonzero"/></clipPath><clipPath id="37b49210f0"><path d="M 11.335938 21.015625 L 24.472656 21.015625 L 24.472656 34.882812 L 11.335938 34.882812 Z M 11.335938 21.015625 " clip-rule="nonzero"/></clipPath></defs><g clip-path="url(#92435e9ceb)"><path fill="#ffffff" d="M 0.488281 0 L 35.511719 0 L 35.511719 42.324219 L 0.488281 42.324219 Z M 0.488281 0 " fill-opacity="1" fill-rule="nonzero"/><path fill="#ffffff" d="M 0.488281 0 L 35.511719 0 L 35.511719 35.027344 L 0.488281 35.027344 Z M 0.488281 0 " fill-opacity="1" fill-rule="nonzero"/><path fill="#000000" d="M 0.488281 0 L 35.511719 0 L 35.511719 35.027344 L 0.488281 35.027344 Z M 0.488281 0 " fill-opacity="1" fill-rule="nonzero"/></g><path fill="#ffffff" d="M 17.902344 24.449219 C 16.453125 24.449219 15.277344 25.6875 15.277344 27.21875 C 15.277344 28.75 16.453125 29.988281 17.902344 29.988281 C 19.355469 29.988281 20.53125 28.75 20.53125 27.21875 C 20.53125 25.6875 19.355469 24.449219 17.902344 24.449219 " fill-opacity="1" fill-rule="nonzero"/><g clip-path="url(#37b49210f0)"><path fill="#ffffff" d="M 22.265625 32.730469 C 21.683594 31.304688 20.464844 30.414062 17.898438 30.414062 C 15.339844 30.414062 14.117188 31.300781 13.535156 32.722656 C 12.347656 31.519531 11.613281 29.824219 11.613281 27.949219 C 11.613281 24.285156 14.429688 21.3125 17.902344 21.3125 C 21.378906 21.3125 24.195312 24.285156 24.195312 27.949219 C 24.195312 29.828125 23.457031 31.523438 22.265625 32.730469 Z M 17.902344 21.023438 C 14.277344 21.023438 11.335938 24.125 11.335938 27.949219 C 11.335938 29.949219 12.140625 31.75 13.425781 33.015625 C 14.601562 34.167969 16.175781 34.875 17.902344 34.875 C 19.632812 34.875 21.203125 34.171875 22.375 33.023438 C 23.664062 31.757812 24.472656 29.953125 24.472656 27.949219 C 24.472656 24.125 21.53125 21.023438 17.902344 21.023438 " fill-opacity="1" fill-rule="nonzero"/></g></svg>