<?xml version="1.0" encoding="UTF-8" standalone="no"?>
<svg
   width="248.00883"
   zoomAndPan="magnify"
   viewBox="0 0 186.00663 53.827163"
   height="71.769554"
   preserveAspectRatio="xMidYMid"
   version="1.0"
   id="svg4962"
   sodipodi:docname="logo1.svg"
   inkscape:export-filename="logo1.png"
   inkscape:export-xdpi="200.6422"
   inkscape:export-ydpi="200.6422"
   xmlns:inkscape="http://www.inkscape.org/namespaces/inkscape"
   xmlns:sodipodi="http://sodipodi.sourceforge.net/DTD/sodipodi-0.dtd"
   xmlns="http://www.w3.org/2000/svg"
   xmlns:svg="http://www.w3.org/2000/svg">
  <sodipodi:namedview
     id="namedview4964"
     pagecolor="#ffffff"
     bordercolor="#000000"
     borderopacity="0.25"
     inkscape:showpageshadow="2"
     inkscape:pageopacity="0.0"
     inkscape:pagecheckerboard="0"
     inkscape:deskcolor="#d1d1d1"
     showgrid="false" />
  <defs
     id="defs4738" />
  <g
     fill="#ffffff"
     fill-opacity="1"
     id="g4746"
     style="stroke-width:0.99975;stroke-dasharray:none"
     transform="translate(-123.04241,-82.597376)"
     inkscape:export-filename="..\..\..\..\logo.svg"
     inkscape:export-xdpi="214.01836"
     inkscape:export-ydpi="214.01836">
    <g
       transform="translate(123.58147,124.25886)"
       id="g4744"
       style="stroke-width:0.99975;stroke-dasharray:none">
      <g
         id="g4742"
         style="stroke-width:0.99975;stroke-dasharray:none">
        <path
           d="m 2.3125,-8.007812 c 1.34375,6.824218 6.609375,9.296874 9.886719,9.296874 3.601562,0 5.644531,-3.222656 5.644531,-6.664062 0,-10.804688 -13.328125,-16.125 -13.328125,-28.324219 0,-3.925781 1.773437,-6.128906 4.996094,-6.128906 5.054687,0 10.160156,4.03125 10.160156,8.546875 0,3.222656 -3.011719,2.957031 -3.0625,2.417969 -0.269531,-2.957031 -2.742187,-8.597657 -6.289063,-8.597657 -1.71875,0 -2.097656,2.578126 -2.097656,3.867188 0,8.277344 13.761719,19.082031 13.761719,27.519531 0,6.183594 -5.214844,9.40625 -9.730469,9.40625 -7.792968,0 -12.792968,-5.75 -12.792968,-8.707031 0,-2.097656 2.742187,-3.171875 2.851562,-2.632812 z m 0,0"
           id="path4740"
           style="stroke-width:0.99975;stroke-dasharray:none" />
      </g>
    </g>
  </g>
  <g
     fill="#ffffff"
     fill-opacity="1"
     id="g4754"
     style="stroke-width:0.99975;stroke-dasharray:none"
     transform="translate(-123.04241,-82.597376)">
    <g
       transform="translate(151.47352,124.25886)"
       id="g4752"
       style="stroke-width:0.99975;stroke-dasharray:none">
      <g
         id="g4750"
         style="stroke-width:0.99975;stroke-dasharray:none">
        <path
           d="m 14.941406,-16.394531 c -3.4375,7.902343 -8.976562,17.414062 -10.585937,17.414062 -0.433594,0 -1.023438,-1.128906 -1.078125,-2.738281 -0.320313,-5.914062 -0.160156,-11.394531 0.699218,-19.835938 2.417969,-0.160156 5.105469,-0.859374 7.742188,-1.71875 0.644531,-0.214843 0.320312,-1.71875 -0.269531,-1.449218 -1.558594,0.75 -4.03125,1.179687 -7.257813,1.179687 L 5.320312,-33 c 0.160157,-1.128906 -3.546874,-1.773438 -3.546874,-0.164062 -0.269532,2.851562 -0.589844,5.914062 -0.859376,9.40625 -3.386718,-0.429688 -5.644531,-1.449219 -6.128906,-2.203126 -0.105468,-0.160156 -1.234375,0.375 -1.234375,1.503907 0,1.882812 3.171875,2.636719 7.203125,2.851562 -0.324218,4.996094 -0.59375,11.015625 -0.539062,18.59375 0.054687,4.085938 1.453125,6.128907 4.085937,6.128907 3.0625,0 7.039063,-7.203126 11.714844,-17.683594 0.539063,-0.859375 -0.535156,-3.007813 -1.074219,-1.828125 z m 0,0"
           id="path4748"
           style="stroke-width:0.99975;stroke-dasharray:none" />
      </g>
    </g>
  </g>
  <g
     fill="#ffffff"
     fill-opacity="1"
     id="g4762"
     style="stroke-width:0.99975;stroke-dasharray:none"
     transform="translate(-123.04241,-82.597376)">
    <g
       transform="translate(164.69403,124.25886)"
       id="g4760"
       style="stroke-width:0.99975;stroke-dasharray:none">
      <g
         id="g4758"
         style="stroke-width:0.99975;stroke-dasharray:none">
        <path
           d="m 11.503906,2.363281 c 4.890625,0 11.125,-12.199219 12.628906,-16.929687 0.269532,-1.019532 -1.074218,-3.4375 -1.289062,-1.828125 -2.097656,7.632812 -8.652344,17.039062 -11.074219,17.039062 -1.019531,0 -1.664062,-1.988281 -1.664062,-4.40625 0,-3.976562 1.933593,-10.589843 1.933593,-10.589843 0.375,-2.042969 -4.566406,-2.042969 -5.695312,-2.203126 C 5.375,-16.714844 4.355469,-16.5 4.621094,-17.144531 c 0.269531,-0.644531 1.722656,-2.203125 2.203125,-3.816407 0.378906,-1.238281 0.648437,-2.957031 -1.34375,-2.957031 -2.253907,0 -3.4375,3.492188 -4.136719,6.074219 -0.484375,1.773438 0.109375,3.007812 1.398438,3.652344 1.289062,0.648437 2.738281,0.484375 4.460937,0.699218 1.183594,0.164063 1.019531,0.753907 0.964844,1.183594 -0.050781,0.429688 -1.394531,4.355469 -1.394531,8.867188 0,3.441406 1.933593,5.804687 4.730468,5.804687 z m 0,0"
           id="path4756"
           style="stroke-width:0.99975;stroke-dasharray:none" />
      </g>
    </g>
  </g>
  <g
     fill="#ffffff"
     fill-opacity="1"
     id="g4770"
     style="stroke-width:0.99975;stroke-dasharray:none"
     transform="translate(-123.04241,-82.597376)">
    <g
       transform="translate(185.92209,124.25886)"
       id="g4768"
       style="stroke-width:0.99975;stroke-dasharray:none">
      <g
         id="g4766"
         style="stroke-width:0.99975;stroke-dasharray:none">
        <path
           d="m 18.273438,-16.394531 c -1.878907,6.289062 -7.203126,16.554687 -11.5,16.554687 -1.238282,0 -3.332032,-1.128906 -4.140626,-4.460937 4.625,-3.4375 9.085938,-7.847657 9.085938,-13.222657 0,-2.09375 -1.238281,-4.082031 -4.085938,-4.082031 -4.085937,0 -8.007812,5.105469 -8.652343,12.683594 -0.699219,9.03125 5.15625,10.910156 7.628906,10.910156 5.859375,0 11.394531,-11.824219 12.957031,-16.554687 0.320313,-0.96875 -0.914062,-3.117188 -1.292968,-1.828125 z m -15.910157,7.6875 c 0.433594,-5.214844 3.066407,-11.179688 5.375,-11.179688 1.238281,0 1.34375,1.773438 1.238281,2.902344 -0.484374,5 -3.925781,8.332031 -6.664062,10.425781 0,-0.644531 0,-1.34375 0.050781,-2.148437 z m 0,0"
           id="path4764"
           style="stroke-width:0.99975;stroke-dasharray:none" />
      </g>
    </g>
  </g>
  <g
     fill="#ffffff"
     fill-opacity="1"
     id="g4778"
     style="stroke-width:0.99975;stroke-dasharray:none"
     transform="translate(-123.04241,-82.597376)">
    <g
       transform="translate(202.58209,124.25886)"
       id="g4776"
       style="stroke-width:0.99975;stroke-dasharray:none">
      <g
         id="g4774"
         style="stroke-width:0.99975;stroke-dasharray:none">
        <path
           d="m 6.234375,0.644531 c 4.03125,0 8.867187,-10.480469 10.375,-15.210937 0.320313,-1.019532 -0.859375,-3.386719 -1.292969,-1.828125 -2.09375,7.632812 -6.929687,14.941406 -8.8125,14.941406 -2.257812,0 -3.601562,-7.84375 -3.171875,-15.207031 0.484375,-7.257813 4.03125,-17.46875 3.710938,-22.199219 -0.054688,-1.398437 -0.539063,-2.902344 -1.9375,-2.796875 -4.03125,0.214844 -4.675781,16.179688 -5.0507815,23.972656 C -0.539062,-5 1.933594,0.644531 6.234375,0.644531 Z m 0,0"
           id="path4772"
           style="stroke-width:0.99975;stroke-dasharray:none" />
      </g>
    </g>
  </g>
  <g
     fill="#ffffff"
     fill-opacity="1"
     id="g4786"
     style="stroke-width:0.99975;stroke-dasharray:none"
     transform="translate(-123.04241,-82.597376)">
    <g
       transform="translate(216.28627,124.25886)"
       id="g4784"
       style="stroke-width:0.99975;stroke-dasharray:none">
      <g
         id="g4782"
         style="stroke-width:0.99975;stroke-dasharray:none">
        <path
           d="M 4.03125,-31.605469 C 5,-31.605469 6.664062,-33 6.664062,-34.34375 c 0,-1.34375 -1.074218,-2.472656 -2.363281,-2.472656 -0.699219,0 -1.882812,0.644531 -1.882812,2.257812 0,1.609375 0.644531,2.953125 1.613281,2.953125 z M 5,2.363281 c 4.890625,0 10.265625,-11.984375 11.878906,-16.714843 0.320313,-0.964844 -0.863281,-3.332032 -1.292968,-1.878907 -2.09375,7.46875 -7.847657,16.875 -10.320313,16.875 -1.289063,0 -1.988281,-2.042969 -1.988281,-6.074219 0,-4.191406 1.078125,-10.425781 1.828125,-16.714843 C 5.265625,-23.273438 1.828125,-22.949219 1.773438,-22.25 0.96875,-15.210938 0.484375,-8.921875 0.484375,-5.535156 0.484375,-0.539062 2.097656,2.363281 5,2.363281 Z m 0,0"
           id="path4780"
           style="stroke-width:0.99975;stroke-dasharray:none" />
      </g>
    </g>
  </g>
  <g
     fill="#ffffff"
     fill-opacity="1"
     id="g4794"
     style="stroke-width:0.99975;stroke-dasharray:none"
     transform="translate(-123.04241,-82.597376)">
    <g
       transform="translate(229.99046,124.25886)"
       id="g4792"
       style="stroke-width:0.99975;stroke-dasharray:none">
      <g
         id="g4790"
         style="stroke-width:0.99975;stroke-dasharray:none">
        <path
           d="m 14.941406,-16.394531 c -3.4375,7.902343 -8.976562,17.414062 -10.585937,17.414062 -0.433594,0 -1.023438,-1.128906 -1.078125,-2.738281 -0.320313,-5.914062 -0.160156,-11.394531 0.699218,-19.835938 2.417969,-0.160156 5.105469,-0.859374 7.742188,-1.71875 0.644531,-0.214843 0.320312,-1.71875 -0.269531,-1.449218 -1.558594,0.75 -4.03125,1.179687 -7.257813,1.179687 L 5.320312,-33 c 0.160157,-1.128906 -3.546874,-1.773438 -3.546874,-0.164062 -0.269532,2.851562 -0.589844,5.914062 -0.859376,9.40625 -3.386718,-0.429688 -5.644531,-1.449219 -6.128906,-2.203126 -0.105468,-0.160156 -1.234375,0.375 -1.234375,1.503907 0,1.882812 3.171875,2.636719 7.203125,2.851562 -0.324218,4.996094 -0.59375,11.015625 -0.539062,18.59375 0.054687,4.085938 1.453125,6.128907 4.085937,6.128907 3.0625,0 7.039063,-7.203126 11.714844,-17.683594 0.539063,-0.859375 -0.535156,-3.007813 -1.074219,-1.828125 z m 0,0"
           id="path4788"
           style="stroke-width:0.99975;stroke-dasharray:none" />
      </g>
    </g>
  </g>
  <g
     fill="#ffffff"
     fill-opacity="1"
     id="g4802"
     style="stroke-width:0.99975;stroke-dasharray:none"
     transform="translate(-123.04241,-82.597376)">
    <g
       transform="translate(243.21098,124.25886)"
       id="g4800"
       style="stroke-width:0.99975;stroke-dasharray:none">
      <g
         id="g4798"
         style="stroke-width:0.99975;stroke-dasharray:none">
        <path
           d="m 2.363281,-17.683594 c 2.042969,-0.539062 4.679688,-1.71875 9.085938,-2.257812 3.0625,-0.375 5.320312,0.160156 6.125,0.375 0.808593,0.21875 0.648437,1.238281 0.214843,2.042968 C 17.359375,-16.714844 7.09375,-0.753906 6.71875,-0.375 6.34375,0 6.234375,0.324219 7.847656,-0.0546875 9.460938,-0.429688 18.167969,-2.6875 19.027344,-3.011719 19.886719,-3.332031 22.359375,-0.753906 21.230469,-0.375 20.101562,0 6.128906,2.527344 4.945312,2.742188 3.761719,2.957031 2.363281,2.796875 3.441406,1.183594 4.515625,-0.429688 15.050781,-16.714844 15.15625,-16.984375 c 0.109375,-0.269531 0.269531,-0.644531 -1.988281,-0.589844 -3.976563,0.05078 -8.867188,2.148438 -11.394531,3.492188 -0.699219,0.375 -0.375,-3.332031 0.589843,-3.601563 z m 0,0"
           id="path4796"
           style="stroke-width:0.99975;stroke-dasharray:none" />
      </g>
    </g>
  </g>
  <g
     fill="#ffffff"
     fill-opacity="1"
     id="g4810"
     style="stroke-width:0.99975;stroke-dasharray:none"
     transform="translate(-123.04241,-82.597376)">
    <g
       transform="translate(267.39484,124.25886)"
       id="g4808"
       style="stroke-width:0.99975;stroke-dasharray:none">
      <g
         id="g4806"
         style="stroke-width:0.99975;stroke-dasharray:none">
        <path
           d="M 4.03125,-31.605469 C 5,-31.605469 6.664062,-33 6.664062,-34.34375 c 0,-1.34375 -1.074218,-2.472656 -2.363281,-2.472656 -0.699219,0 -1.882812,0.644531 -1.882812,2.257812 0,1.609375 0.644531,2.953125 1.613281,2.953125 z M 5,2.363281 c 4.890625,0 10.265625,-11.984375 11.878906,-16.714843 0.320313,-0.964844 -0.863281,-3.332032 -1.292968,-1.878907 -2.09375,7.46875 -7.847657,16.875 -10.320313,16.875 -1.289063,0 -1.988281,-2.042969 -1.988281,-6.074219 0,-4.191406 1.078125,-10.425781 1.828125,-16.714843 C 5.265625,-23.273438 1.828125,-22.949219 1.773438,-22.25 0.96875,-15.210938 0.484375,-8.921875 0.484375,-5.535156 0.484375,-0.539062 2.097656,2.363281 5,2.363281 Z m 0,0"
           id="path4804"
           style="stroke-width:0.99975;stroke-dasharray:none" />
      </g>
    </g>
  </g>
  <g
     fill="#ffffff"
     fill-opacity="1"
     id="g4818"
     style="stroke-width:0.99975;stroke-dasharray:none"
     transform="translate(-123.04241,-82.597376)">
    <g
       transform="translate(281.09903,124.25886)"
       id="g4816"
       style="stroke-width:0.99975;stroke-dasharray:none">
      <g
         id="g4814"
         style="stroke-width:0.99975;stroke-dasharray:none">
        <path
           d="m 16.339844,2.363281 c 4.890625,0 9.996094,-12.199219 11.554687,-16.929687 0.324219,-1.019532 -0.859375,-3.386719 -1.289062,-1.828125 -2.148438,7.632812 -7.578125,17.039062 -9.996094,17.039062 -1.023437,0 -1.667969,-2.3125 -1.667969,-6.074219 0,-2.308593 1.023438,-13.542968 1.183594,-14.402343 0.214844,-1.183594 -3.332031,-0.859375 -3.332031,-0.164063 0,0.484375 -0.378907,3.066406 -0.644531,3.980469 -2.152344,7.847656 -5.324219,14.511719 -7.527344,14.511719 -1.019532,0 -1.824219,-1.988282 -1.824219,-6.234375 0,-5.753907 2.363281,-11.074219 5.695313,-11.074219 0.539062,0 1.019531,0.375 1.128906,0.859375 0.214844,0.59375 1.289062,-0.160156 1.289062,-1.019531 0,-0.859375 -1.183594,-1.558594 -2.523437,-1.558594 -4.625,0 -9.570313,5.265625 -9.355469,13.113281 0.164062,7.847657 4.410156,8.117188 5.105469,8.117188 4.300781,0 6.558593,-7.578125 7.6875,-10.480469 0.269531,-0.699219 0.644531,-1.128906 0.484375,0.320312 -0.05469,0.429688 -0.160156,1.507813 -0.160156,3.925782 0,5.210937 1.394531,7.898437 4.191406,7.898437 z m 0,0"
           id="path4812"
           style="stroke-width:0.99975;stroke-dasharray:none" />
      </g>
    </g>
  </g>
  <g
     fill="#ffde59"
     fill-opacity="1"
     id="g4826"
     style="stroke-width:0.99975;stroke-dasharray:none"
     transform="translate(-123.04241,-82.597376)">
    <g
       transform="translate(156.66326,136.36203)"
       id="g4824"
       style="stroke-width:0.99975;stroke-dasharray:none">
      <g
         id="g4822"
         style="stroke-width:0.99975;stroke-dasharray:none">
        <path
           d="M 1.90625,0.0625 C 1.5,0.0625 1.125,-0.0234375 0.78125,-0.203125 0.4375,-0.378906 0.160156,-0.628906 -0.046875,-0.953125 l 0.4375,-0.5 c 0.382813,0.585937 0.890625,0.875 1.515625,0.875 0.875,0 1.3125,-0.519531 1.3125,-1.5625 V -6.40625 H 0.640625 v -0.640625 h 3.3125 V -2.15625 C 3.953125,-1.425781 3.78125,-0.875 3.4375,-0.5 3.09375,-0.125 2.582031,0.0625 1.90625,0.0625 Z m 0,0"
           id="path4820"
           style="stroke-width:0.99975;stroke-dasharray:none" />
      </g>
    </g>
  </g>
  <g
     fill="#ffde59"
     fill-opacity="1"
     id="g4834"
     style="stroke-width:0.99975;stroke-dasharray:none"
     transform="translate(-123.04241,-82.597376)">
    <g
       transform="translate(163.06308,136.36203)"
       id="g4832"
       style="stroke-width:0.99975;stroke-dasharray:none">
      <g
         id="g4830"
         style="stroke-width:0.99975;stroke-dasharray:none">
        <path
           d="m 2.84375,-5.328125 c 0.695312,0 1.226562,0.171875 1.59375,0.515625 0.363281,0.34375 0.546875,0.855469 0.546875,1.53125 V 0 H 4.3125 v -0.828125 c -0.167969,0.28125 -0.40625,0.5 -0.71875,0.65625 -0.3125,0.1484375 -0.683594,0.21875 -1.109375,0.21875 -0.59375,0 -1.070313,-0.140625 -1.421875,-0.421875 -0.34375,-0.28125 -0.515625,-0.648438 -0.515625,-1.109375 0,-0.445313 0.160156,-0.804687 0.484375,-1.078125 0.332031,-0.28125 0.851562,-0.421875 1.5625,-0.421875 h 1.6875 V -3.3125 c 0,-0.457031 -0.132812,-0.800781 -0.390625,-1.03125 -0.25,-0.238281 -0.621094,-0.359375 -1.109375,-0.359375 -0.335938,0 -0.65625,0.058594 -0.96875,0.171875 C 1.5,-4.425781 1.234375,-4.273438 1.015625,-4.078125 L 0.6875,-4.625 c 0.269531,-0.21875 0.59375,-0.390625 0.96875,-0.515625 0.375,-0.125 0.769531,-0.1875 1.1875,-0.1875 z m -0.25,4.8125 c 0.40625,0 0.75,-0.085937 1.03125,-0.265625 0.289062,-0.1875 0.507812,-0.457031 0.65625,-0.8125 V -2.453125 H 2.609375 c -0.90625,0 -1.359375,0.3125 -1.359375,0.9375 0,0.3125 0.117188,0.558594 0.359375,0.734375 0.238281,0.179688 0.566406,0.265625 0.984375,0.265625 z m 0,0"
           id="path4828"
           style="stroke-width:0.99975;stroke-dasharray:none" />
      </g>
    </g>
  </g>
  <g
     fill="#ffde59"
     fill-opacity="1"
     id="g4842"
     style="stroke-width:0.99975;stroke-dasharray:none"
     transform="translate(-123.04241,-82.597376)">
    <g
       transform="translate(170.35829,136.36203)"
       id="g4840"
       style="stroke-width:0.99975;stroke-dasharray:none">
      <g
         id="g4838"
         style="stroke-width:0.99975;stroke-dasharray:none">
        <path
           d="M 1.6875,-4.25 C 1.851562,-4.613281 2.097656,-4.882812 2.421875,-5.0625 2.753906,-5.238281 3.164062,-5.328125 3.65625,-5.328125 v 0.6875 L 3.484375,-4.65625 c -0.554687,0 -0.992187,0.171875 -1.3125,0.515625 -0.3125,0.34375 -0.46875,0.824219 -0.46875,1.4375 V 0 H 1 v -5.296875 h 0.6875 z m 0,0"
           id="path4836"
           style="stroke-width:0.99975;stroke-dasharray:none" />
      </g>
    </g>
  </g>
  <g
     fill="#ffde59"
     fill-opacity="1"
     id="g4850"
     style="stroke-width:0.99975;stroke-dasharray:none"
     transform="translate(-123.04241,-82.597376)">
    <g
       transform="translate(175.75206,136.36203)"
       id="g4848"
       style="stroke-width:0.99975;stroke-dasharray:none">
      <g
         id="g4846"
         style="stroke-width:0.99975;stroke-dasharray:none">
        <path
           d="M 5.828125,-7.46875 V 0 h -0.6875 v -1.046875 c -0.21875,0.355469 -0.507813,0.625 -0.859375,0.8125 -0.34375,0.1875 -0.742188,0.28125 -1.1875,0.28125 -0.492188,0 -0.9375,-0.1132812 -1.34375,-0.34375 C 1.34375,-0.523438 1.023438,-0.84375 0.796875,-1.25 0.578125,-1.65625 0.46875,-2.117188 0.46875,-2.640625 c 0,-0.53125 0.109375,-1 0.328125,-1.40625 0.226563,-0.40625 0.546875,-0.71875 0.953125,-0.9375 0.40625,-0.226563 0.851562,-0.34375 1.34375,-0.34375 0.4375,0 0.828125,0.089844 1.171875,0.265625 0.34375,0.179688 0.625,0.4375 0.84375,0.78125 v -3.1875 z M 3.15625,-0.578125 c 0.375,0 0.707031,-0.082031 1,-0.25 C 4.457031,-1.003906 4.691406,-1.25 4.859375,-1.5625 5.035156,-1.882812 5.125,-2.242188 5.125,-2.640625 5.125,-3.046875 5.035156,-3.40625 4.859375,-3.71875 4.691406,-4.039062 4.457031,-4.285156 4.15625,-4.453125 c -0.292969,-0.164063 -0.625,-0.25 -1,-0.25 -0.375,0 -0.714844,0.085937 -1.015625,0.25 -0.292969,0.167969 -0.527344,0.414063 -0.703125,0.734375 -0.167969,0.3125 -0.25,0.671875 -0.25,1.078125 0,0.398437 0.082031,0.757813 0.25,1.078125 0.175781,0.3125 0.410156,0.558594 0.703125,0.734375 0.300781,0.167969 0.640625,0.25 1.015625,0.25 z m 0,0"
           id="path4844"
           style="stroke-width:0.99975;stroke-dasharray:none" />
      </g>
    </g>
  </g>
  <g
     fill="#ffde59"
     fill-opacity="1"
     id="g4858"
     style="stroke-width:0.99975;stroke-dasharray:none"
     transform="translate(-123.04241,-82.597376)">
    <g
       transform="translate(183.93259,136.36203)"
       id="g4856"
       style="stroke-width:0.99975;stroke-dasharray:none">
      <g
         id="g4854"
         style="stroke-width:0.99975;stroke-dasharray:none">
        <path
           d="M 1,-5.296875 H 1.703125 V 0 H 1 Z m 0.359375,-1.15625 c -0.148437,0 -0.273437,-0.046875 -0.375,-0.140625 -0.105469,-0.101562 -0.15625,-0.226562 -0.15625,-0.375 0,-0.132812 0.050781,-0.25 0.15625,-0.34375 0.101563,-0.101562 0.226563,-0.15625 0.375,-0.15625 0.144531,0 0.265625,0.054688 0.359375,0.15625 0.101562,0.09375 0.15625,0.210938 0.15625,0.34375 0,0.148438 -0.054688,0.273438 -0.15625,0.375 C 1.625,-6.5 1.503906,-6.453125 1.359375,-6.453125 Z m 0,0"
           id="path4852"
           style="stroke-width:0.99975;stroke-dasharray:none" />
      </g>
    </g>
  </g>
  <g
     fill="#ffde59"
     fill-opacity="1"
     id="g4866"
     style="stroke-width:0.99975;stroke-dasharray:none"
     transform="translate(-123.04241,-82.597376)">
    <g
       transform="translate(187.99835,136.36203)"
       id="g4864"
       style="stroke-width:0.99975;stroke-dasharray:none">
      <g
         id="g4862"
         style="stroke-width:0.99975;stroke-dasharray:none">
        <path
           d="m 3.6875,-5.328125 c 0.664062,0 1.191406,0.195313 1.578125,0.578125 0.394531,0.386719 0.59375,0.949219 0.59375,1.6875 V 0 H 5.15625 v -3 c 0,-0.550781 -0.140625,-0.96875 -0.421875,-1.25 C 4.460938,-4.539062 4.070312,-4.6875 3.5625,-4.6875 c -0.574219,0 -1.027344,0.171875 -1.359375,0.515625 -0.335937,0.335937 -0.5,0.796875 -0.5,1.390625 V 0 H 1 V -5.296875 H 1.6875 V -4.3125 C 1.875,-4.632812 2.140625,-4.882812 2.484375,-5.0625 2.835938,-5.238281 3.238281,-5.328125 3.6875,-5.328125 Z m 0,0"
           id="path4860"
           style="stroke-width:0.99975;stroke-dasharray:none" />
      </g>
    </g>
  </g>
  <g
     fill="#ffde59"
     fill-opacity="1"
     id="g4874"
     style="stroke-width:0.99975;stroke-dasharray:none"
     transform="translate(-123.04241,-82.597376)">
    <g
       transform="translate(196.16883,136.36203)"
       id="g4872"
       style="stroke-width:0.99975;stroke-dasharray:none">
      <g
         id="g4870"
         style="stroke-width:0.99975;stroke-dasharray:none">
        <path
           d="m 5.609375,-2.421875 h -4.4375 c 0.039063,0.554687 0.253906,1 0.640625,1.34375 0.382812,0.335937 0.867188,0.5 1.453125,0.5 0.320313,0 0.617187,-0.054687 0.890625,-0.171875 C 4.4375,-0.875 4.675781,-1.050781 4.875,-1.28125 l 0.40625,0.46875 c -0.230469,0.28125 -0.523438,0.496094 -0.875,0.640625 -0.355469,0.1484375 -0.746094,0.21875 -1.171875,0.21875 -0.542969,0 -1.023437,-0.1132812 -1.4375,-0.34375 C 1.378906,-0.523438 1.050781,-0.84375 0.8125,-1.25 0.582031,-1.664062 0.46875,-2.128906 0.46875,-2.640625 c 0,-0.519531 0.109375,-0.984375 0.328125,-1.390625 0.226563,-0.414062 0.535156,-0.734375 0.921875,-0.953125 0.394531,-0.226563 0.835938,-0.34375 1.328125,-0.34375 0.488281,0 0.925781,0.117187 1.3125,0.34375 0.394531,0.21875 0.703125,0.53125 0.921875,0.9375 0.21875,0.40625 0.328125,0.875 0.328125,1.40625 z m -2.5625,-2.296875 c -0.511719,0 -0.9375,0.164062 -1.28125,0.484375 -0.34375,0.324219 -0.542969,0.75 -0.59375,1.28125 H 4.9375 C 4.882812,-3.484375 4.6875,-3.910156 4.34375,-4.234375 4,-4.554688 3.566406,-4.71875 3.046875,-4.71875 Z m 0,0"
           id="path4868"
           style="stroke-width:0.99975;stroke-dasharray:none" />
      </g>
    </g>
  </g>
  <g
     fill="#ffde59"
     fill-opacity="1"
     id="g4882"
     style="stroke-width:0.99975;stroke-dasharray:none"
     transform="translate(-123.04241,-82.597376)">
    <g
       transform="translate(203.60489,136.36203)"
       id="g4880"
       style="stroke-width:0.99975;stroke-dasharray:none">
      <g
         id="g4878"
         style="stroke-width:0.99975;stroke-dasharray:none">
        <path
           d="M 1.6875,-4.25 C 1.851562,-4.613281 2.097656,-4.882812 2.421875,-5.0625 2.753906,-5.238281 3.164062,-5.328125 3.65625,-5.328125 v 0.6875 L 3.484375,-4.65625 c -0.554687,0 -0.992187,0.171875 -1.3125,0.515625 -0.3125,0.34375 -0.46875,0.824219 -0.46875,1.4375 V 0 H 1 v -5.296875 h 0.6875 z m 0,0"
           id="path4876"
           style="stroke-width:0.99975;stroke-dasharray:none" />
      </g>
    </g>
  </g>
  <g
     fill="#ffde59"
     fill-opacity="1"
     id="g4890"
     style="stroke-width:0.99975;stroke-dasharray:none"
     transform="translate(-123.04241,-82.597376)">
    <g
       transform="translate(208.99865,136.36203)"
       id="g4888"
       style="stroke-width:0.99975;stroke-dasharray:none">
      <g
         id="g4886"
         style="stroke-width:0.99975;stroke-dasharray:none">
        <path
           d="M 1,-5.296875 H 1.703125 V 0 H 1 Z m 0.359375,-1.15625 c -0.148437,0 -0.273437,-0.046875 -0.375,-0.140625 -0.105469,-0.101562 -0.15625,-0.226562 -0.15625,-0.375 0,-0.132812 0.050781,-0.25 0.15625,-0.34375 0.101563,-0.101562 0.226563,-0.15625 0.375,-0.15625 0.144531,0 0.265625,0.054688 0.359375,0.15625 0.101562,0.09375 0.15625,0.210938 0.15625,0.34375 0,0.148438 -0.054688,0.273438 -0.15625,0.375 C 1.625,-6.5 1.503906,-6.453125 1.359375,-6.453125 Z m 0,0"
           id="path4884"
           style="stroke-width:0.99975;stroke-dasharray:none" />
      </g>
    </g>
  </g>
  <g
     fill="#ffde59"
     fill-opacity="1"
     id="g4898"
     style="stroke-width:0.99975;stroke-dasharray:none"
     transform="translate(-123.04241,-82.597376)">
    <g
       transform="translate(213.06442,136.36203)"
       id="g4896"
       style="stroke-width:0.99975;stroke-dasharray:none">
      <g
         id="g4894"
         style="stroke-width:0.99975;stroke-dasharray:none">
        <path
           d="m 5.609375,-2.421875 h -4.4375 c 0.039063,0.554687 0.253906,1 0.640625,1.34375 0.382812,0.335937 0.867188,0.5 1.453125,0.5 0.320313,0 0.617187,-0.054687 0.890625,-0.171875 C 4.4375,-0.875 4.675781,-1.050781 4.875,-1.28125 l 0.40625,0.46875 c -0.230469,0.28125 -0.523438,0.496094 -0.875,0.640625 -0.355469,0.1484375 -0.746094,0.21875 -1.171875,0.21875 -0.542969,0 -1.023437,-0.1132812 -1.4375,-0.34375 C 1.378906,-0.523438 1.050781,-0.84375 0.8125,-1.25 0.582031,-1.664062 0.46875,-2.128906 0.46875,-2.640625 c 0,-0.519531 0.109375,-0.984375 0.328125,-1.390625 0.226563,-0.414062 0.535156,-0.734375 0.921875,-0.953125 0.394531,-0.226563 0.835938,-0.34375 1.328125,-0.34375 0.488281,0 0.925781,0.117187 1.3125,0.34375 0.394531,0.21875 0.703125,0.53125 0.921875,0.9375 0.21875,0.40625 0.328125,0.875 0.328125,1.40625 z m -2.5625,-2.296875 c -0.511719,0 -0.9375,0.164062 -1.28125,0.484375 -0.34375,0.324219 -0.542969,0.75 -0.59375,1.28125 H 4.9375 C 4.882812,-3.484375 4.6875,-3.910156 4.34375,-4.234375 4,-4.554688 3.566406,-4.71875 3.046875,-4.71875 Z m 0,0"
           id="path4892"
           style="stroke-width:0.99975;stroke-dasharray:none" />
      </g>
    </g>
  </g>
  <g
     fill="#ffde59"
     fill-opacity="1"
     id="g4912"
     style="stroke-width:0.99975;stroke-dasharray:none"
     transform="translate(-123.04241,-82.597376)">
    <g
       transform="translate(224.49583,136.36203)"
       id="g4910"
       style="stroke-width:0.99975;stroke-dasharray:none">
      <g
         id="g4908"
         style="stroke-width:0.99975;stroke-dasharray:none">
        <path
           d="m 3.984375,0.0625 c -0.917969,0 -1.632813,-0.257812 -2.140625,-0.78125 -0.5,-0.53125 -0.75,-1.296875 -0.75,-2.296875 v -4.03125 h 0.734375 v 4.015625 c 0,0.8125 0.179687,1.421875 0.546875,1.828125 0.375,0.398437 0.910156,0.59375 1.609375,0.59375 0.707031,0 1.242187,-0.195313 1.609375,-0.59375 0.363281,-0.40625 0.546875,-1.015625 0.546875,-1.828125 V -7.046875 H 6.875 v 4.03125 c 0,1 -0.257812,1.765625 -0.765625,2.296875 -0.5,0.523438 -1.210937,0.78125 -2.125,0.78125 z m 0,0"
           id="path4906"
           style="stroke-width:0.99975;stroke-dasharray:none" />
      </g>
    </g>
  </g>
  <g
     fill="#ffde59"
     fill-opacity="1"
     id="g4920"
     style="stroke-width:0.99975;stroke-dasharray:none"
     transform="translate(-123.04241,-82.597376)">
    <g
       transform="translate(233.82326,136.36203)"
       id="g4918"
       style="stroke-width:0.99975;stroke-dasharray:none">
      <g
         id="g4916"
         style="stroke-width:0.99975;stroke-dasharray:none">
        <path
           d="M 1.6875,-4.25 C 1.851562,-4.613281 2.097656,-4.882812 2.421875,-5.0625 2.753906,-5.238281 3.164062,-5.328125 3.65625,-5.328125 v 0.6875 L 3.484375,-4.65625 c -0.554687,0 -0.992187,0.171875 -1.3125,0.515625 -0.3125,0.34375 -0.46875,0.824219 -0.46875,1.4375 V 0 H 1 v -5.296875 h 0.6875 z m 0,0"
           id="path4914"
           style="stroke-width:0.99975;stroke-dasharray:none" />
      </g>
    </g>
  </g>
  <g
     fill="#ffde59"
     fill-opacity="1"
     id="g4928"
     style="stroke-width:0.99975;stroke-dasharray:none"
     transform="translate(-123.04241,-82.597376)">
    <g
       transform="translate(239.21703,136.36203)"
       id="g4926"
       style="stroke-width:0.99975;stroke-dasharray:none">
      <g
         id="g4924"
         style="stroke-width:0.99975;stroke-dasharray:none">
        <path
           d="m 3.71875,-5.328125 c 0.5,0 0.945312,0.117187 1.34375,0.34375 0.40625,0.21875 0.722656,0.53125 0.953125,0.9375 0.226563,0.40625 0.34375,0.875 0.34375,1.40625 0,0.523437 -0.117187,0.984375 -0.34375,1.390625 -0.230469,0.40625 -0.546875,0.726562 -0.953125,0.953125 -0.398438,0.2304688 -0.84375,0.34375 -1.34375,0.34375 -0.4375,0 -0.835938,-0.09375 -1.1875,-0.28125 -0.355469,-0.1875 -0.636719,-0.457031 -0.84375,-0.8125 V 0 H 1 v -7.46875 h 0.703125 v 3.1875 C 1.929688,-4.625 2.21875,-4.882812 2.5625,-5.0625 2.90625,-5.238281 3.289062,-5.328125 3.71875,-5.328125 Z m -0.046875,4.75 c 0.363281,0 0.695313,-0.082031 1,-0.25 C 4.972656,-1.003906 5.207031,-1.25 5.375,-1.5625 5.550781,-1.882812 5.640625,-2.242188 5.640625,-2.640625 5.640625,-3.046875 5.550781,-3.40625 5.375,-3.71875 5.207031,-4.039062 4.972656,-4.285156 4.671875,-4.453125 c -0.304687,-0.164063 -0.636719,-0.25 -1,-0.25 -0.375,0 -0.714844,0.085937 -1.015625,0.25 -0.292969,0.167969 -0.527344,0.414063 -0.703125,0.734375 -0.167969,0.3125 -0.25,0.671875 -0.25,1.078125 0,0.398437 0.082031,0.757813 0.25,1.078125 0.175781,0.3125 0.410156,0.558594 0.703125,0.734375 0.300781,0.167969 0.640625,0.25 1.015625,0.25 z m 0,0"
           id="path4922"
           style="stroke-width:0.99975;stroke-dasharray:none" />
      </g>
    </g>
  </g>
  <g
     fill="#ffde59"
     fill-opacity="1"
     id="g4936"
     style="stroke-width:0.99975;stroke-dasharray:none"
     transform="translate(-123.04241,-82.597376)">
    <g
       transform="translate(247.39756,136.36203)"
       id="g4934"
       style="stroke-width:0.99975;stroke-dasharray:none">
      <g
         id="g4932"
         style="stroke-width:0.99975;stroke-dasharray:none">
        <path
           d="m 2.84375,-5.328125 c 0.695312,0 1.226562,0.171875 1.59375,0.515625 0.363281,0.34375 0.546875,0.855469 0.546875,1.53125 V 0 H 4.3125 v -0.828125 c -0.167969,0.28125 -0.40625,0.5 -0.71875,0.65625 -0.3125,0.1484375 -0.683594,0.21875 -1.109375,0.21875 -0.59375,0 -1.070313,-0.140625 -1.421875,-0.421875 -0.34375,-0.28125 -0.515625,-0.648438 -0.515625,-1.109375 0,-0.445313 0.160156,-0.804687 0.484375,-1.078125 0.332031,-0.28125 0.851562,-0.421875 1.5625,-0.421875 h 1.6875 V -3.3125 c 0,-0.457031 -0.132812,-0.800781 -0.390625,-1.03125 -0.25,-0.238281 -0.621094,-0.359375 -1.109375,-0.359375 -0.335938,0 -0.65625,0.058594 -0.96875,0.171875 C 1.5,-4.425781 1.234375,-4.273438 1.015625,-4.078125 L 0.6875,-4.625 c 0.269531,-0.21875 0.59375,-0.390625 0.96875,-0.515625 0.375,-0.125 0.769531,-0.1875 1.1875,-0.1875 z m -0.25,4.8125 c 0.40625,0 0.75,-0.085937 1.03125,-0.265625 0.289062,-0.1875 0.507812,-0.457031 0.65625,-0.8125 V -2.453125 H 2.609375 c -0.90625,0 -1.359375,0.3125 -1.359375,0.9375 0,0.3125 0.117188,0.558594 0.359375,0.734375 0.238281,0.179688 0.566406,0.265625 0.984375,0.265625 z m 0,0"
           id="path4930"
           style="stroke-width:0.99975;stroke-dasharray:none" />
      </g>
    </g>
  </g>
  <g
     fill="#ffde59"
     fill-opacity="1"
     id="g4944"
     style="stroke-width:0.99975;stroke-dasharray:none"
     transform="translate(-123.04241,-82.597376)">
    <g
       transform="translate(254.69276,136.36203)"
       id="g4942"
       style="stroke-width:0.99975;stroke-dasharray:none">
      <g
         id="g4940"
         style="stroke-width:0.99975;stroke-dasharray:none">
        <path
           d="M 1,-5.296875 H 1.703125 V 0 H 1 Z m 0.359375,-1.15625 c -0.148437,0 -0.273437,-0.046875 -0.375,-0.140625 -0.105469,-0.101562 -0.15625,-0.226562 -0.15625,-0.375 0,-0.132812 0.050781,-0.25 0.15625,-0.34375 0.101563,-0.101562 0.226563,-0.15625 0.375,-0.15625 0.144531,0 0.265625,0.054688 0.359375,0.15625 0.101562,0.09375 0.15625,0.210938 0.15625,0.34375 0,0.148438 -0.054688,0.273438 -0.15625,0.375 C 1.625,-6.5 1.503906,-6.453125 1.359375,-6.453125 Z m 0,0"
           id="path4938"
           style="stroke-width:0.99975;stroke-dasharray:none" />
      </g>
    </g>
  </g>
  <g
     fill="#ffde59"
     fill-opacity="1"
     id="g4952"
     style="stroke-width:0.99975;stroke-dasharray:none"
     transform="translate(-123.04241,-82.597376)">
    <g
       transform="translate(258.75853,136.36203)"
       id="g4950"
       style="stroke-width:0.99975;stroke-dasharray:none">
      <g
         id="g4948"
         style="stroke-width:0.99975;stroke-dasharray:none">
        <path
           d="m 3.6875,-5.328125 c 0.664062,0 1.191406,0.195313 1.578125,0.578125 0.394531,0.386719 0.59375,0.949219 0.59375,1.6875 V 0 H 5.15625 v -3 c 0,-0.550781 -0.140625,-0.96875 -0.421875,-1.25 C 4.460938,-4.539062 4.070312,-4.6875 3.5625,-4.6875 c -0.574219,0 -1.027344,0.171875 -1.359375,0.515625 -0.335937,0.335937 -0.5,0.796875 -0.5,1.390625 V 0 H 1 V -5.296875 H 1.6875 V -4.3125 C 1.875,-4.632812 2.140625,-4.882812 2.484375,-5.0625 2.835938,-5.238281 3.238281,-5.328125 3.6875,-5.328125 Z m 0,0"
           id="path4946"
           style="stroke-width:0.99975;stroke-dasharray:none" />
      </g>
    </g>
  </g>
  <g
     fill="#ffde59"
     fill-opacity="1"
     id="g4960"
     style="stroke-width:0.99975;stroke-dasharray:none"
     transform="translate(-123.04241,-82.597376)">
    <g
       transform="translate(266.929,136.36203)"
       id="g4958"
       style="stroke-width:0.99975;stroke-dasharray:none">
      <g
         id="g4956"
         style="stroke-width:0.99975;stroke-dasharray:none">
        <path
           d="m 5.609375,-2.421875 h -4.4375 c 0.039063,0.554687 0.253906,1 0.640625,1.34375 0.382812,0.335937 0.867188,0.5 1.453125,0.5 0.320313,0 0.617187,-0.054687 0.890625,-0.171875 C 4.4375,-0.875 4.675781,-1.050781 4.875,-1.28125 l 0.40625,0.46875 c -0.230469,0.28125 -0.523438,0.496094 -0.875,0.640625 -0.355469,0.1484375 -0.746094,0.21875 -1.171875,0.21875 -0.542969,0 -1.023437,-0.1132812 -1.4375,-0.34375 C 1.378906,-0.523438 1.050781,-0.84375 0.8125,-1.25 0.582031,-1.664062 0.46875,-2.128906 0.46875,-2.640625 c 0,-0.519531 0.109375,-0.984375 0.328125,-1.390625 0.226563,-0.414062 0.535156,-0.734375 0.921875,-0.953125 0.394531,-0.226563 0.835938,-0.34375 1.328125,-0.34375 0.488281,0 0.925781,0.117187 1.3125,0.34375 0.394531,0.21875 0.703125,0.53125 0.921875,0.9375 0.21875,0.40625 0.328125,0.875 0.328125,1.40625 z m -2.5625,-2.296875 c -0.511719,0 -0.9375,0.164062 -1.28125,0.484375 -0.34375,0.324219 -0.542969,0.75 -0.59375,1.28125 H 4.9375 C 4.882812,-3.484375 4.6875,-3.910156 4.34375,-4.234375 4,-4.554688 3.566406,-4.71875 3.046875,-4.71875 Z m 0,0"
           id="path4954"
           style="stroke-width:0.99975;stroke-dasharray:none" />
      </g>
    </g>
  </g>
</svg>
