<svg xmlns="http://www.w3.org/2000/svg" xmlns:xlink="http://www.w3.org/1999/xlink" width="48" zoomAndPan="magnify" viewBox="0 0 36 36.000001" height="48" preserveAspectRatio="xMidYMid meet" version="1.0"><defs><clipPath id="28a8ede574"><path d="M 34.347656 33.859375 L 35.511719 33.859375 L 35.511719 35.027344 L 34.347656 35.027344 Z M 34.347656 33.859375 " clip-rule="nonzero"/></clipPath><clipPath id="dcf7801e4d"><path d="M 2.347656 1.859375 L 33.726562 1.859375 L 33.726562 33.238281 L 2.347656 33.238281 Z M 2.347656 1.859375 " clip-rule="nonzero"/></clipPath></defs><g clip-path="url(#28a8ede574)"><path fill="#000000" d="M 41.277344 33.855469 C 37.449219 33.855469 34.347656 36.957031 34.347656 40.785156 C 34.347656 44.613281 37.449219 47.714844 41.277344 47.714844 C 45.105469 47.714844 48.207031 44.613281 48.207031 40.785156 C 48.207031 36.957031 45.105469 33.855469 41.277344 33.855469 Z M 39.382812 43.453125 L 43.6875 43.453125 C 44.246094 43.453125 44.703125 43.90625 44.703125 44.464844 C 44.703125 45.027344 44.246094 45.480469 43.6875 45.480469 C 43.128906 45.480469 42.671875 45.027344 42.671875 44.464844 C 42.671875 44.363281 42.6875 44.265625 42.71875 44.171875 L 39.800781 44.171875 C 39.828125 44.265625 39.84375 44.363281 39.84375 44.464844 C 39.84375 45.027344 39.390625 45.480469 38.828125 45.480469 C 38.269531 45.480469 37.816406 45.027344 37.816406 44.464844 C 37.816406 43.964844 38.179688 43.550781 38.65625 43.46875 L 38.476562 42.484375 L 38.476562 42.476562 L 37.527344 37.792969 L 36.660156 37.796875 L 36.652344 37.078125 L 38.117188 37.070312 L 38.46875 38.820312 L 45.023438 39.605469 L 44.191406 42.777344 L 39.261719 42.777344 Z M 39.382812 43.453125 " fill-opacity="1" fill-rule="nonzero"/></g><g clip-path="url(#dcf7801e4d)"><path fill="#000000" d="M 11.761719 26.964844 C 10.027344 26.964844 8.636719 28.367188 8.636719 30.101562 C 8.636719 31.835938 10.027344 33.238281 11.761719 33.238281 C 13.496094 33.238281 14.898438 31.835938 14.898438 30.101562 C 14.898438 28.367188 13.496094 26.964844 11.761719 26.964844 Z M 2.347656 1.859375 L 2.347656 5 L 5.484375 5 L 11.125 16.898438 L 9.007812 20.742188 C 8.765625 21.199219 8.621094 21.707031 8.621094 22.257812 C 8.621094 23.992188 10.027344 25.394531 11.761719 25.394531 L 30.585938 25.394531 L 30.585938 22.257812 L 12.425781 22.257812 C 12.207031 22.257812 12.035156 22.085938 12.035156 21.863281 C 12.035156 21.792969 12.050781 21.730469 12.082031 21.675781 L 13.488281 19.117188 L 25.175781 19.117188 C 26.351562 19.117188 27.378906 18.46875 27.921875 17.503906 L 33.53125 7.320312 C 33.65625 7.101562 33.726562 6.84375 33.726562 6.566406 C 33.726562 5.695312 33.019531 5 32.15625 5 L 8.960938 5 L 7.46875 1.859375 Z M 27.449219 26.964844 C 25.714844 26.964844 24.328125 28.367188 24.328125 30.101562 C 24.328125 31.835938 25.714844 33.238281 27.449219 33.238281 C 29.183594 33.238281 30.585938 31.835938 30.585938 30.101562 C 30.585938 28.367188 29.183594 26.964844 27.449219 26.964844 Z M 27.449219 26.964844 " fill-opacity="1" fill-rule="nonzero"/></g></svg>