<svg xmlns="http://www.w3.org/2000/svg" xmlns:xlink="http://www.w3.org/1999/xlink" width="48" zoomAndPan="magnify" viewBox="0 0 36 36.000001" height="48" preserveAspectRatio="xMidYMid meet" version="1.0"><defs><clipPath id="a207633646"><path d="M 0.488281 0 L 35.511719 0 L 35.511719 35.027344 L 0.488281 35.027344 Z M 0.488281 0 " clip-rule="nonzero"/></clipPath><clipPath id="cbea40a0cd"><path d="M 5.121094 4.632812 L 30.660156 4.632812 L 30.660156 30.175781 L 5.121094 30.175781 Z M 5.121094 4.632812 " clip-rule="nonzero"/></clipPath></defs><g clip-path="url(#a207633646)"><path fill="#ffffff" d="M 0.488281 0 L 35.511719 0 L 35.511719 35.027344 L 0.488281 35.027344 Z M 0.488281 0 " fill-opacity="1" fill-rule="nonzero"/><path fill="#ffffff" d="M 0.488281 0 L 35.511719 0 L 35.511719 35.027344 L 0.488281 35.027344 Z M 0.488281 0 " fill-opacity="1" fill-rule="nonzero"/></g><path fill="#000000" d="M 13.925781 24.171875 C 13.925781 24.324219 13.871094 24.453125 13.765625 24.558594 C 13.660156 24.664062 13.53125 24.71875 13.378906 24.71875 C 13.230469 24.71875 13.101562 24.664062 12.996094 24.558594 C 12.886719 24.453125 12.835938 24.324219 12.835938 24.171875 C 12.835938 24.023438 12.886719 23.894531 12.996094 23.789062 C 13.101562 23.679688 13.230469 23.628906 13.378906 23.628906 C 13.53125 23.628906 13.660156 23.679688 13.765625 23.789062 C 13.871094 23.894531 13.925781 24.023438 13.925781 24.171875 Z M 13.925781 24.171875 " fill-opacity="1" fill-rule="nonzero"/><path fill="#000000" d="M 22.875 24.171875 C 22.875 24.324219 22.820312 24.453125 22.714844 24.558594 C 22.609375 24.664062 22.480469 24.71875 22.328125 24.71875 C 22.179688 24.71875 22.050781 24.664062 21.945312 24.558594 C 21.835938 24.453125 21.785156 24.324219 21.785156 24.171875 C 21.785156 24.023438 21.835938 23.894531 21.945312 23.789062 C 22.050781 23.679688 22.179688 23.628906 22.328125 23.628906 C 22.480469 23.628906 22.609375 23.679688 22.714844 23.789062 C 22.820312 23.894531 22.875 24.023438 22.875 24.171875 Z M 22.875 24.171875 " fill-opacity="1" fill-rule="nonzero"/><g clip-path="url(#cbea40a0cd)"><path fill="#000000" d="M 17.886719 4.625 C 10.835938 4.625 5.121094 10.34375 5.121094 17.394531 C 5.121094 24.441406 10.835938 30.160156 17.886719 30.160156 C 24.9375 30.160156 30.65625 24.445312 30.65625 17.394531 C 30.65625 10.34375 24.9375 4.625 17.886719 4.625 Z M 14.398438 22.304688 L 22.328125 22.304688 C 23.359375 22.304688 24.199219 23.140625 24.199219 24.171875 C 24.199219 25.203125 23.359375 26.042969 22.328125 26.042969 C 21.296875 26.042969 20.460938 25.203125 20.460938 24.171875 C 20.460938 23.984375 20.488281 23.800781 20.542969 23.628906 L 15.167969 23.628906 C 15.222656 23.800781 15.25 23.984375 15.25 24.171875 C 15.25 25.203125 14.410156 26.042969 13.378906 26.042969 C 12.347656 26.042969 11.511719 25.203125 11.511719 24.171875 C 11.511719 23.253906 12.179688 22.488281 13.058594 22.332031 L 12.730469 20.523438 L 12.726562 20.503906 L 10.984375 11.878906 L 9.382812 11.886719 L 9.371094 10.5625 L 12.066406 10.546875 L 12.71875 13.769531 L 24.789062 15.21875 L 23.253906 21.0625 L 14.171875 21.0625 Z M 14.398438 22.304688 " fill-opacity="1" fill-rule="nonzero"/></g></svg>