<svg xmlns="http://www.w3.org/2000/svg" xmlns:xlink="http://www.w3.org/1999/xlink" width="48" zoomAndPan="magnify" viewBox="0 0 36 36.000001" height="48" preserveAspectRatio="xMidYMid meet" version="1.0"><defs><clipPath id="72911ead65"><path d="M 0.488281 0 L 35.511719 0 L 35.511719 35.027344 L 0.488281 35.027344 Z M 0.488281 0 " clip-rule="nonzero"/></clipPath><clipPath id="1599839299"><path d="M 2.238281 1.75 L 33.617188 1.75 L 33.617188 33.128906 L 2.238281 33.128906 Z M 2.238281 1.75 " clip-rule="nonzero"/></clipPath></defs><g clip-path="url(#72911ead65)"><path fill="#ffffff" d="M 0.488281 0 L 35.511719 0 L 35.511719 35.027344 L 0.488281 35.027344 Z M 0.488281 0 " fill-opacity="1" fill-rule="nonzero"/><path fill="#000000" d="M 0.488281 0 L 35.511719 0 L 35.511719 35.027344 L 0.488281 35.027344 Z M 0.488281 0 " fill-opacity="1" fill-rule="nonzero"/></g><path fill="#ffffff" d="M 13.054688 25.757812 C 13.054688 25.941406 12.992188 26.101562 12.859375 26.230469 C 12.730469 26.359375 12.570312 26.425781 12.386719 26.425781 C 12.199219 26.425781 12.042969 26.359375 11.914062 26.230469 C 11.78125 26.101562 11.714844 25.941406 11.714844 25.757812 C 11.714844 25.570312 11.78125 25.414062 11.914062 25.28125 C 12.042969 25.152344 12.199219 25.085938 12.386719 25.085938 C 12.570312 25.085938 12.730469 25.152344 12.859375 25.28125 C 12.992188 25.414062 13.054688 25.570312 13.054688 25.757812 Z M 13.054688 25.757812 " fill-opacity="1" fill-rule="nonzero"/><path fill="#ffffff" d="M 24.050781 25.757812 C 24.050781 25.941406 23.984375 26.101562 23.855469 26.230469 C 23.722656 26.359375 23.566406 26.425781 23.378906 26.425781 C 23.195312 26.425781 23.039062 26.359375 22.90625 26.230469 C 22.777344 26.101562 22.710938 25.941406 22.710938 25.757812 C 22.710938 25.570312 22.777344 25.414062 22.90625 25.28125 C 23.039062 25.152344 23.195312 25.085938 23.378906 25.085938 C 23.566406 25.085938 23.722656 25.152344 23.855469 25.28125 C 23.984375 25.414062 24.050781 25.570312 24.050781 25.757812 Z M 24.050781 25.757812 " fill-opacity="1" fill-rule="nonzero"/><g clip-path="url(#1599839299)"><path fill="#ffffff" d="M 17.925781 1.742188 C 9.261719 1.742188 2.238281 8.765625 2.238281 17.425781 C 2.238281 26.089844 9.261719 33.113281 17.925781 33.113281 C 26.585938 33.113281 33.609375 26.089844 33.609375 17.425781 C 33.609375 8.765625 26.585938 1.742188 17.925781 1.742188 Z M 13.636719 23.460938 L 23.378906 23.460938 C 24.648438 23.460938 25.675781 24.492188 25.675781 25.757812 C 25.675781 27.023438 24.648438 28.054688 23.378906 28.054688 C 22.113281 28.054688 21.082031 27.023438 21.082031 25.757812 C 21.082031 25.523438 21.117188 25.300781 21.183594 25.085938 L 14.582031 25.085938 C 14.648438 25.300781 14.683594 25.523438 14.683594 25.757812 C 14.683594 27.023438 13.652344 28.054688 12.386719 28.054688 C 11.121094 28.054688 10.089844 27.023438 10.089844 25.757812 C 10.089844 24.625 10.910156 23.683594 11.992188 23.496094 L 11.585938 21.273438 L 11.582031 21.25 L 9.441406 10.652344 L 7.472656 10.664062 L 7.460938 9.035156 L 10.769531 9.015625 L 11.570312 12.976562 L 26.402344 14.753906 L 24.519531 21.933594 L 13.359375 21.933594 Z M 13.636719 23.460938 " fill-opacity="1" fill-rule="nonzero"/></g></svg>