<svg xmlns="http://www.w3.org/2000/svg" xmlns:xlink="http://www.w3.org/1999/xlink" width="573" zoomAndPan="magnify" viewBox="0 0 429.75 214.499994" height="286" preserveAspectRatio="xMidYMid meet" version="1.0"><defs><g/></defs><g fill="#ffffff" fill-opacity="1"><g transform="translate(123.581466, 124.25886)"><g><path d="M 2.3125 -8.007812 C 3.65625 -1.183594 8.921875 1.289062 12.199219 1.289062 C 15.800781 1.289062 17.84375 -1.933594 17.84375 -5.375 C 17.84375 -16.179688 4.515625 -21.5 4.515625 -33.699219 C 4.515625 -37.625 6.289062 -39.828125 9.511719 -39.828125 C 14.566406 -39.828125 19.671875 -35.796875 19.671875 -31.28125 C 19.671875 -28.058594 16.660156 -28.324219 16.609375 -28.863281 C 16.339844 -31.820312 13.867188 -37.460938 10.320312 -37.460938 C 8.601562 -37.460938 8.222656 -34.882812 8.222656 -33.59375 C 8.222656 -25.316406 21.984375 -14.511719 21.984375 -6.074219 C 21.984375 0.109375 16.769531 3.332031 12.253906 3.332031 C 4.460938 3.332031 -0.539062 -2.417969 -0.539062 -5.375 C -0.539062 -7.472656 2.203125 -8.546875 2.3125 -8.007812 Z M 2.3125 -8.007812 "/></g></g></g><g fill="#ffffff" fill-opacity="1"><g transform="translate(151.473518, 124.25886)"><g><path d="M 14.941406 -16.394531 C 11.503906 -8.492188 5.964844 1.019531 4.355469 1.019531 C 3.921875 1.019531 3.332031 -0.109375 3.277344 -1.71875 C 2.957031 -7.632812 3.117188 -13.113281 3.976562 -21.554688 C 6.394531 -21.714844 9.082031 -22.414062 11.71875 -23.273438 C 12.363281 -23.488281 12.039062 -24.992188 11.449219 -24.722656 C 9.890625 -23.972656 7.417969 -23.542969 4.191406 -23.542969 L 5.320312 -33 C 5.480469 -34.128906 1.773438 -34.773438 1.773438 -33.164062 C 1.503906 -30.3125 1.183594 -27.25 0.914062 -23.757812 C -2.472656 -24.1875 -4.730469 -25.207031 -5.214844 -25.960938 C -5.320312 -26.121094 -6.449219 -25.585938 -6.449219 -24.457031 C -6.449219 -22.574219 -3.277344 -21.820312 0.753906 -21.605469 C 0.429688 -16.609375 0.160156 -10.589844 0.214844 -3.011719 C 0.269531 1.074219 1.667969 3.117188 4.300781 3.117188 C 7.363281 3.117188 11.339844 -4.085938 16.015625 -14.566406 C 16.554688 -15.425781 15.480469 -17.574219 14.941406 -16.394531 Z M 14.941406 -16.394531 "/></g></g></g><g fill="#ffffff" fill-opacity="1"><g transform="translate(164.694033, 124.25886)"><g><path d="M 11.503906 2.363281 C 16.394531 2.363281 22.628906 -9.835938 24.132812 -14.566406 C 24.402344 -15.585938 23.058594 -18.003906 22.84375 -16.394531 C 20.746094 -8.761719 14.191406 0.644531 11.769531 0.644531 C 10.75 0.644531 10.105469 -1.34375 10.105469 -3.761719 C 10.105469 -7.738281 12.039062 -14.351562 12.039062 -14.351562 C 12.414062 -16.394531 7.472656 -16.394531 6.34375 -16.554688 C 5.375 -16.714844 4.355469 -16.5 4.621094 -17.144531 C 4.890625 -17.789062 6.34375 -19.347656 6.824219 -20.960938 C 7.203125 -22.199219 7.472656 -23.917969 5.480469 -23.917969 C 3.226562 -23.917969 2.042969 -20.425781 1.34375 -17.84375 C 0.859375 -16.070312 1.453125 -14.835938 2.742188 -14.191406 C 4.03125 -13.542969 5.480469 -13.707031 7.203125 -13.492188 C 8.386719 -13.328125 8.222656 -12.738281 8.167969 -12.308594 C 8.117188 -11.878906 6.773438 -7.953125 6.773438 -3.441406 C 6.773438 0 8.707031 2.363281 11.503906 2.363281 Z M 11.503906 2.363281 "/></g></g></g><g fill="#ffffff" fill-opacity="1"><g transform="translate(185.922089, 124.25886)"><g><path d="M 18.273438 -16.394531 C 16.394531 -10.105469 11.070312 0.160156 6.773438 0.160156 C 5.535156 0.160156 3.441406 -0.96875 2.632812 -4.300781 C 7.257812 -7.738281 11.71875 -12.148438 11.71875 -17.523438 C 11.71875 -19.617188 10.480469 -21.605469 7.632812 -21.605469 C 3.546875 -21.605469 -0.375 -16.5 -1.019531 -8.921875 C -1.71875 0.109375 4.136719 1.988281 6.609375 1.988281 C 12.46875 1.988281 18.003906 -9.835938 19.566406 -14.566406 C 19.886719 -15.535156 18.652344 -17.683594 18.273438 -16.394531 Z M 2.363281 -8.707031 C 2.796875 -13.921875 5.429688 -19.886719 7.738281 -19.886719 C 8.976562 -19.886719 9.082031 -18.113281 8.976562 -16.984375 C 8.492188 -11.984375 5.050781 -8.652344 2.3125 -6.558594 C 2.3125 -7.203125 2.3125 -7.902344 2.363281 -8.707031 Z M 2.363281 -8.707031 "/></g></g></g><g fill="#ffffff" fill-opacity="1"><g transform="translate(202.582086, 124.25886)"><g><path d="M 6.234375 0.644531 C 10.265625 0.644531 15.101562 -9.835938 16.609375 -14.566406 C 16.929688 -15.585938 15.75 -17.953125 15.316406 -16.394531 C 13.222656 -8.761719 8.386719 -1.453125 6.503906 -1.453125 C 4.246094 -1.453125 2.902344 -9.296875 3.332031 -16.660156 C 3.816406 -23.917969 7.363281 -34.128906 7.042969 -38.859375 C 6.988281 -40.257812 6.503906 -41.761719 5.105469 -41.65625 C 1.074219 -41.441406 0.429688 -25.476562 0.0546875 -17.683594 C -0.539062 -5 1.933594 0.644531 6.234375 0.644531 Z M 6.234375 0.644531 "/></g></g></g><g fill="#ffffff" fill-opacity="1"><g transform="translate(216.286275, 124.25886)"><g><path d="M 4.03125 -31.605469 C 5 -31.605469 6.664062 -33 6.664062 -34.34375 C 6.664062 -35.6875 5.589844 -36.816406 4.300781 -36.816406 C 3.601562 -36.816406 2.417969 -36.171875 2.417969 -34.558594 C 2.417969 -32.949219 3.0625 -31.605469 4.03125 -31.605469 Z M 5 2.363281 C 9.890625 2.363281 15.265625 -9.621094 16.878906 -14.351562 C 17.199219 -15.316406 16.015625 -17.683594 15.585938 -16.230469 C 13.492188 -8.761719 7.738281 0.644531 5.265625 0.644531 C 3.976562 0.644531 3.277344 -1.398438 3.277344 -5.429688 C 3.277344 -9.621094 4.355469 -15.855469 5.105469 -22.144531 C 5.265625 -23.273438 1.828125 -22.949219 1.773438 -22.25 C 0.96875 -15.210938 0.484375 -8.921875 0.484375 -5.535156 C 0.484375 -0.539062 2.097656 2.363281 5 2.363281 Z M 5 2.363281 "/></g></g></g><g fill="#ffffff" fill-opacity="1"><g transform="translate(229.990464, 124.25886)"><g><path d="M 14.941406 -16.394531 C 11.503906 -8.492188 5.964844 1.019531 4.355469 1.019531 C 3.921875 1.019531 3.332031 -0.109375 3.277344 -1.71875 C 2.957031 -7.632812 3.117188 -13.113281 3.976562 -21.554688 C 6.394531 -21.714844 9.082031 -22.414062 11.71875 -23.273438 C 12.363281 -23.488281 12.039062 -24.992188 11.449219 -24.722656 C 9.890625 -23.972656 7.417969 -23.542969 4.191406 -23.542969 L 5.320312 -33 C 5.480469 -34.128906 1.773438 -34.773438 1.773438 -33.164062 C 1.503906 -30.3125 1.183594 -27.25 0.914062 -23.757812 C -2.472656 -24.1875 -4.730469 -25.207031 -5.214844 -25.960938 C -5.320312 -26.121094 -6.449219 -25.585938 -6.449219 -24.457031 C -6.449219 -22.574219 -3.277344 -21.820312 0.753906 -21.605469 C 0.429688 -16.609375 0.160156 -10.589844 0.214844 -3.011719 C 0.269531 1.074219 1.667969 3.117188 4.300781 3.117188 C 7.363281 3.117188 11.339844 -4.085938 16.015625 -14.566406 C 16.554688 -15.425781 15.480469 -17.574219 14.941406 -16.394531 Z M 14.941406 -16.394531 "/></g></g></g><g fill="#ffffff" fill-opacity="1"><g transform="translate(243.210979, 124.25886)"><g><path d="M 2.363281 -17.683594 C 4.40625 -18.222656 7.042969 -19.402344 11.449219 -19.941406 C 14.511719 -20.316406 16.769531 -19.78125 17.574219 -19.566406 C 18.382812 -19.347656 18.222656 -18.328125 17.789062 -17.523438 C 17.359375 -16.714844 7.09375 -0.753906 6.71875 -0.375 C 6.34375 0 6.234375 0.324219 7.847656 -0.0546875 C 9.460938 -0.429688 18.167969 -2.6875 19.027344 -3.011719 C 19.886719 -3.332031 22.359375 -0.753906 21.230469 -0.375 C 20.101562 0 6.128906 2.527344 4.945312 2.742188 C 3.761719 2.957031 2.363281 2.796875 3.441406 1.183594 C 4.515625 -0.429688 15.050781 -16.714844 15.15625 -16.984375 C 15.265625 -17.253906 15.425781 -17.628906 13.167969 -17.574219 C 9.191406 -17.523438 4.300781 -15.425781 1.773438 -14.082031 C 1.074219 -13.707031 1.398438 -17.414062 2.363281 -17.683594 Z M 2.363281 -17.683594 "/></g></g></g><g fill="#ffffff" fill-opacity="1"><g transform="translate(267.394843, 124.25886)"><g><path d="M 4.03125 -31.605469 C 5 -31.605469 6.664062 -33 6.664062 -34.34375 C 6.664062 -35.6875 5.589844 -36.816406 4.300781 -36.816406 C 3.601562 -36.816406 2.417969 -36.171875 2.417969 -34.558594 C 2.417969 -32.949219 3.0625 -31.605469 4.03125 -31.605469 Z M 5 2.363281 C 9.890625 2.363281 15.265625 -9.621094 16.878906 -14.351562 C 17.199219 -15.316406 16.015625 -17.683594 15.585938 -16.230469 C 13.492188 -8.761719 7.738281 0.644531 5.265625 0.644531 C 3.976562 0.644531 3.277344 -1.398438 3.277344 -5.429688 C 3.277344 -9.621094 4.355469 -15.855469 5.105469 -22.144531 C 5.265625 -23.273438 1.828125 -22.949219 1.773438 -22.25 C 0.96875 -15.210938 0.484375 -8.921875 0.484375 -5.535156 C 0.484375 -0.539062 2.097656 2.363281 5 2.363281 Z M 5 2.363281 "/></g></g></g><g fill="#ffffff" fill-opacity="1"><g transform="translate(281.099032, 124.25886)"><g><path d="M 16.339844 2.363281 C 21.230469 2.363281 26.335938 -9.835938 27.894531 -14.566406 C 28.21875 -15.585938 27.035156 -17.953125 26.605469 -16.394531 C 24.457031 -8.761719 19.027344 0.644531 16.609375 0.644531 C 15.585938 0.644531 14.941406 -1.667969 14.941406 -5.429688 C 14.941406 -7.738281 15.964844 -18.972656 16.125 -19.832031 C 16.339844 -21.015625 12.792969 -20.691406 12.792969 -19.996094 C 12.792969 -19.511719 12.414062 -16.929688 12.148438 -16.015625 C 9.996094 -8.167969 6.824219 -1.503906 4.621094 -1.503906 C 3.601562 -1.503906 2.796875 -3.492188 2.796875 -7.738281 C 2.796875 -13.492188 5.160156 -18.8125 8.492188 -18.8125 C 9.03125 -18.8125 9.511719 -18.4375 9.621094 -17.953125 C 9.835938 -17.359375 10.910156 -18.113281 10.910156 -18.972656 C 10.910156 -19.832031 9.726562 -20.53125 8.386719 -20.53125 C 3.761719 -20.53125 -1.183594 -15.265625 -0.96875 -7.417969 C -0.804688 0.429688 3.441406 0.699219 4.136719 0.699219 C 8.4375 0.699219 10.695312 -6.878906 11.824219 -9.78125 C 12.09375 -10.480469 12.46875 -10.910156 12.308594 -9.460938 C 12.253906 -9.03125 12.148438 -7.953125 12.148438 -5.535156 C 12.148438 -0.324219 13.542969 2.363281 16.339844 2.363281 Z M 16.339844 2.363281 "/></g></g></g><g fill="#ffde59" fill-opacity="1"><g transform="translate(156.663265, 136.362029)"><g><path d="M 1.90625 0.0625 C 1.5 0.0625 1.125 -0.0234375 0.78125 -0.203125 C 0.4375 -0.378906 0.160156 -0.628906 -0.046875 -0.953125 L 0.390625 -1.453125 C 0.773438 -0.867188 1.28125 -0.578125 1.90625 -0.578125 C 2.78125 -0.578125 3.21875 -1.097656 3.21875 -2.140625 L 3.21875 -6.40625 L 0.640625 -6.40625 L 0.640625 -7.046875 L 3.953125 -7.046875 L 3.953125 -2.15625 C 3.953125 -1.425781 3.78125 -0.875 3.4375 -0.5 C 3.09375 -0.125 2.582031 0.0625 1.90625 0.0625 Z M 1.90625 0.0625 "/></g></g></g><g fill="#ffde59" fill-opacity="1"><g transform="translate(163.063083, 136.362029)"><g><path d="M 2.84375 -5.328125 C 3.539062 -5.328125 4.070312 -5.15625 4.4375 -4.8125 C 4.800781 -4.46875 4.984375 -3.957031 4.984375 -3.28125 L 4.984375 0 L 4.3125 0 L 4.3125 -0.828125 C 4.144531 -0.546875 3.90625 -0.328125 3.59375 -0.171875 C 3.28125 -0.0234375 2.910156 0.046875 2.484375 0.046875 C 1.890625 0.046875 1.414062 -0.09375 1.0625 -0.375 C 0.71875 -0.65625 0.546875 -1.023438 0.546875 -1.484375 C 0.546875 -1.929688 0.707031 -2.289062 1.03125 -2.5625 C 1.363281 -2.84375 1.882812 -2.984375 2.59375 -2.984375 L 4.28125 -2.984375 L 4.28125 -3.3125 C 4.28125 -3.769531 4.148438 -4.113281 3.890625 -4.34375 C 3.640625 -4.582031 3.269531 -4.703125 2.78125 -4.703125 C 2.445312 -4.703125 2.125 -4.644531 1.8125 -4.53125 C 1.5 -4.425781 1.234375 -4.273438 1.015625 -4.078125 L 0.6875 -4.625 C 0.957031 -4.84375 1.28125 -5.015625 1.65625 -5.140625 C 2.03125 -5.265625 2.425781 -5.328125 2.84375 -5.328125 Z M 2.59375 -0.515625 C 3 -0.515625 3.34375 -0.601562 3.625 -0.78125 C 3.914062 -0.96875 4.132812 -1.238281 4.28125 -1.59375 L 4.28125 -2.453125 L 2.609375 -2.453125 C 1.703125 -2.453125 1.25 -2.140625 1.25 -1.515625 C 1.25 -1.203125 1.367188 -0.957031 1.609375 -0.78125 C 1.847656 -0.601562 2.175781 -0.515625 2.59375 -0.515625 Z M 2.59375 -0.515625 "/></g></g></g><g fill="#ffde59" fill-opacity="1"><g transform="translate(170.35829, 136.362029)"><g><path d="M 1.6875 -4.25 C 1.851562 -4.613281 2.097656 -4.882812 2.421875 -5.0625 C 2.753906 -5.238281 3.164062 -5.328125 3.65625 -5.328125 L 3.65625 -4.640625 L 3.484375 -4.65625 C 2.929688 -4.65625 2.492188 -4.484375 2.171875 -4.140625 C 1.859375 -3.796875 1.703125 -3.316406 1.703125 -2.703125 L 1.703125 0 L 1 0 L 1 -5.296875 L 1.6875 -5.296875 Z M 1.6875 -4.25 "/></g></g></g><g fill="#ffde59" fill-opacity="1"><g transform="translate(175.752055, 136.362029)"><g><path d="M 5.828125 -7.46875 L 5.828125 0 L 5.140625 0 L 5.140625 -1.046875 C 4.921875 -0.691406 4.632812 -0.421875 4.28125 -0.234375 C 3.9375 -0.046875 3.539062 0.046875 3.09375 0.046875 C 2.601562 0.046875 2.15625 -0.0664062 1.75 -0.296875 C 1.34375 -0.523438 1.023438 -0.84375 0.796875 -1.25 C 0.578125 -1.65625 0.46875 -2.117188 0.46875 -2.640625 C 0.46875 -3.171875 0.578125 -3.640625 0.796875 -4.046875 C 1.023438 -4.453125 1.34375 -4.765625 1.75 -4.984375 C 2.15625 -5.210938 2.601562 -5.328125 3.09375 -5.328125 C 3.53125 -5.328125 3.921875 -5.238281 4.265625 -5.0625 C 4.609375 -4.882812 4.890625 -4.625 5.109375 -4.28125 L 5.109375 -7.46875 Z M 3.15625 -0.578125 C 3.53125 -0.578125 3.863281 -0.660156 4.15625 -0.828125 C 4.457031 -1.003906 4.691406 -1.25 4.859375 -1.5625 C 5.035156 -1.882812 5.125 -2.242188 5.125 -2.640625 C 5.125 -3.046875 5.035156 -3.40625 4.859375 -3.71875 C 4.691406 -4.039062 4.457031 -4.285156 4.15625 -4.453125 C 3.863281 -4.617188 3.53125 -4.703125 3.15625 -4.703125 C 2.78125 -4.703125 2.441406 -4.617188 2.140625 -4.453125 C 1.847656 -4.285156 1.613281 -4.039062 1.4375 -3.71875 C 1.269531 -3.40625 1.1875 -3.046875 1.1875 -2.640625 C 1.1875 -2.242188 1.269531 -1.882812 1.4375 -1.5625 C 1.613281 -1.25 1.847656 -1.003906 2.140625 -0.828125 C 2.441406 -0.660156 2.78125 -0.578125 3.15625 -0.578125 Z M 3.15625 -0.578125 "/></g></g></g><g fill="#ffde59" fill-opacity="1"><g transform="translate(183.932586, 136.362029)"><g><path d="M 1 -5.296875 L 1.703125 -5.296875 L 1.703125 0 L 1 0 Z M 1.359375 -6.453125 C 1.210938 -6.453125 1.085938 -6.5 0.984375 -6.59375 C 0.878906 -6.695312 0.828125 -6.820312 0.828125 -6.96875 C 0.828125 -7.101562 0.878906 -7.21875 0.984375 -7.3125 C 1.085938 -7.414062 1.210938 -7.46875 1.359375 -7.46875 C 1.503906 -7.46875 1.625 -7.414062 1.71875 -7.3125 C 1.820312 -7.21875 1.875 -7.101562 1.875 -6.96875 C 1.875 -6.820312 1.820312 -6.695312 1.71875 -6.59375 C 1.625 -6.5 1.503906 -6.453125 1.359375 -6.453125 Z M 1.359375 -6.453125 "/></g></g></g><g fill="#ffde59" fill-opacity="1"><g transform="translate(187.998355, 136.362029)"><g><path d="M 3.6875 -5.328125 C 4.351562 -5.328125 4.878906 -5.132812 5.265625 -4.75 C 5.660156 -4.363281 5.859375 -3.800781 5.859375 -3.0625 L 5.859375 0 L 5.15625 0 L 5.15625 -3 C 5.15625 -3.550781 5.015625 -3.96875 4.734375 -4.25 C 4.460938 -4.539062 4.070312 -4.6875 3.5625 -4.6875 C 2.988281 -4.6875 2.535156 -4.515625 2.203125 -4.171875 C 1.867188 -3.835938 1.703125 -3.375 1.703125 -2.78125 L 1.703125 0 L 1 0 L 1 -5.296875 L 1.6875 -5.296875 L 1.6875 -4.3125 C 1.875 -4.632812 2.140625 -4.882812 2.484375 -5.0625 C 2.835938 -5.238281 3.238281 -5.328125 3.6875 -5.328125 Z M 3.6875 -5.328125 "/></g></g></g><g fill="#ffde59" fill-opacity="1"><g transform="translate(196.168833, 136.362029)"><g><path d="M 5.609375 -2.421875 L 1.171875 -2.421875 C 1.210938 -1.867188 1.425781 -1.421875 1.8125 -1.078125 C 2.195312 -0.742188 2.679688 -0.578125 3.265625 -0.578125 C 3.585938 -0.578125 3.882812 -0.632812 4.15625 -0.75 C 4.4375 -0.875 4.675781 -1.050781 4.875 -1.28125 L 5.28125 -0.8125 C 5.050781 -0.53125 4.757812 -0.316406 4.40625 -0.171875 C 4.050781 -0.0234375 3.660156 0.046875 3.234375 0.046875 C 2.691406 0.046875 2.210938 -0.0664062 1.796875 -0.296875 C 1.378906 -0.523438 1.050781 -0.84375 0.8125 -1.25 C 0.582031 -1.664062 0.46875 -2.128906 0.46875 -2.640625 C 0.46875 -3.160156 0.578125 -3.625 0.796875 -4.03125 C 1.023438 -4.445312 1.332031 -4.765625 1.71875 -4.984375 C 2.113281 -5.210938 2.554688 -5.328125 3.046875 -5.328125 C 3.535156 -5.328125 3.972656 -5.210938 4.359375 -4.984375 C 4.753906 -4.765625 5.0625 -4.453125 5.28125 -4.046875 C 5.5 -3.640625 5.609375 -3.171875 5.609375 -2.640625 Z M 3.046875 -4.71875 C 2.535156 -4.71875 2.109375 -4.554688 1.765625 -4.234375 C 1.421875 -3.910156 1.222656 -3.484375 1.171875 -2.953125 L 4.9375 -2.953125 C 4.882812 -3.484375 4.6875 -3.910156 4.34375 -4.234375 C 4 -4.554688 3.566406 -4.71875 3.046875 -4.71875 Z M 3.046875 -4.71875 "/></g></g></g><g fill="#ffde59" fill-opacity="1"><g transform="translate(203.604888, 136.362029)"><g><path d="M 1.6875 -4.25 C 1.851562 -4.613281 2.097656 -4.882812 2.421875 -5.0625 C 2.753906 -5.238281 3.164062 -5.328125 3.65625 -5.328125 L 3.65625 -4.640625 L 3.484375 -4.65625 C 2.929688 -4.65625 2.492188 -4.484375 2.171875 -4.140625 C 1.859375 -3.796875 1.703125 -3.316406 1.703125 -2.703125 L 1.703125 0 L 1 0 L 1 -5.296875 L 1.6875 -5.296875 Z M 1.6875 -4.25 "/></g></g></g><g fill="#ffde59" fill-opacity="1"><g transform="translate(208.998651, 136.362029)"><g><path d="M 1 -5.296875 L 1.703125 -5.296875 L 1.703125 0 L 1 0 Z M 1.359375 -6.453125 C 1.210938 -6.453125 1.085938 -6.5 0.984375 -6.59375 C 0.878906 -6.695312 0.828125 -6.820312 0.828125 -6.96875 C 0.828125 -7.101562 0.878906 -7.21875 0.984375 -7.3125 C 1.085938 -7.414062 1.210938 -7.46875 1.359375 -7.46875 C 1.503906 -7.46875 1.625 -7.414062 1.71875 -7.3125 C 1.820312 -7.21875 1.875 -7.101562 1.875 -6.96875 C 1.875 -6.820312 1.820312 -6.695312 1.71875 -6.59375 C 1.625 -6.5 1.503906 -6.453125 1.359375 -6.453125 Z M 1.359375 -6.453125 "/></g></g></g><g fill="#ffde59" fill-opacity="1"><g transform="translate(213.064421, 136.362029)"><g><path d="M 5.609375 -2.421875 L 1.171875 -2.421875 C 1.210938 -1.867188 1.425781 -1.421875 1.8125 -1.078125 C 2.195312 -0.742188 2.679688 -0.578125 3.265625 -0.578125 C 3.585938 -0.578125 3.882812 -0.632812 4.15625 -0.75 C 4.4375 -0.875 4.675781 -1.050781 4.875 -1.28125 L 5.28125 -0.8125 C 5.050781 -0.53125 4.757812 -0.316406 4.40625 -0.171875 C 4.050781 -0.0234375 3.660156 0.046875 3.234375 0.046875 C 2.691406 0.046875 2.210938 -0.0664062 1.796875 -0.296875 C 1.378906 -0.523438 1.050781 -0.84375 0.8125 -1.25 C 0.582031 -1.664062 0.46875 -2.128906 0.46875 -2.640625 C 0.46875 -3.160156 0.578125 -3.625 0.796875 -4.03125 C 1.023438 -4.445312 1.332031 -4.765625 1.71875 -4.984375 C 2.113281 -5.210938 2.554688 -5.328125 3.046875 -5.328125 C 3.535156 -5.328125 3.972656 -5.210938 4.359375 -4.984375 C 4.753906 -4.765625 5.0625 -4.453125 5.28125 -4.046875 C 5.5 -3.640625 5.609375 -3.171875 5.609375 -2.640625 Z M 3.046875 -4.71875 C 2.535156 -4.71875 2.109375 -4.554688 1.765625 -4.234375 C 1.421875 -3.910156 1.222656 -3.484375 1.171875 -2.953125 L 4.9375 -2.953125 C 4.882812 -3.484375 4.6875 -3.910156 4.34375 -4.234375 C 4 -4.554688 3.566406 -4.71875 3.046875 -4.71875 Z M 3.046875 -4.71875 "/></g></g></g><g fill="#ffde59" fill-opacity="1"><g transform="translate(220.500476, 136.362029)"><g/></g></g><g fill="#ffde59" fill-opacity="1"><g transform="translate(224.495827, 136.362029)"><g><path d="M 3.984375 0.0625 C 3.066406 0.0625 2.351562 -0.195312 1.84375 -0.71875 C 1.34375 -1.25 1.09375 -2.015625 1.09375 -3.015625 L 1.09375 -7.046875 L 1.828125 -7.046875 L 1.828125 -3.03125 C 1.828125 -2.21875 2.007812 -1.609375 2.375 -1.203125 C 2.75 -0.804688 3.285156 -0.609375 3.984375 -0.609375 C 4.691406 -0.609375 5.226562 -0.804688 5.59375 -1.203125 C 5.957031 -1.609375 6.140625 -2.21875 6.140625 -3.03125 L 6.140625 -7.046875 L 6.875 -7.046875 L 6.875 -3.015625 C 6.875 -2.015625 6.617188 -1.25 6.109375 -0.71875 C 5.609375 -0.195312 4.898438 0.0625 3.984375 0.0625 Z M 3.984375 0.0625 "/></g></g></g><g fill="#ffde59" fill-opacity="1"><g transform="translate(233.82326, 136.362029)"><g><path d="M 1.6875 -4.25 C 1.851562 -4.613281 2.097656 -4.882812 2.421875 -5.0625 C 2.753906 -5.238281 3.164062 -5.328125 3.65625 -5.328125 L 3.65625 -4.640625 L 3.484375 -4.65625 C 2.929688 -4.65625 2.492188 -4.484375 2.171875 -4.140625 C 1.859375 -3.796875 1.703125 -3.316406 1.703125 -2.703125 L 1.703125 0 L 1 0 L 1 -5.296875 L 1.6875 -5.296875 Z M 1.6875 -4.25 "/></g></g></g><g fill="#ffde59" fill-opacity="1"><g transform="translate(239.217026, 136.362029)"><g><path d="M 3.71875 -5.328125 C 4.21875 -5.328125 4.664062 -5.210938 5.0625 -4.984375 C 5.46875 -4.765625 5.785156 -4.453125 6.015625 -4.046875 C 6.242188 -3.640625 6.359375 -3.171875 6.359375 -2.640625 C 6.359375 -2.117188 6.242188 -1.65625 6.015625 -1.25 C 5.785156 -0.84375 5.46875 -0.523438 5.0625 -0.296875 C 4.664062 -0.0664062 4.21875 0.046875 3.71875 0.046875 C 3.28125 0.046875 2.882812 -0.046875 2.53125 -0.234375 C 2.175781 -0.421875 1.894531 -0.691406 1.6875 -1.046875 L 1.6875 0 L 1 0 L 1 -7.46875 L 1.703125 -7.46875 L 1.703125 -4.28125 C 1.929688 -4.625 2.21875 -4.882812 2.5625 -5.0625 C 2.90625 -5.238281 3.289062 -5.328125 3.71875 -5.328125 Z M 3.671875 -0.578125 C 4.035156 -0.578125 4.367188 -0.660156 4.671875 -0.828125 C 4.972656 -1.003906 5.207031 -1.25 5.375 -1.5625 C 5.550781 -1.882812 5.640625 -2.242188 5.640625 -2.640625 C 5.640625 -3.046875 5.550781 -3.40625 5.375 -3.71875 C 5.207031 -4.039062 4.972656 -4.285156 4.671875 -4.453125 C 4.367188 -4.617188 4.035156 -4.703125 3.671875 -4.703125 C 3.296875 -4.703125 2.957031 -4.617188 2.65625 -4.453125 C 2.363281 -4.285156 2.128906 -4.039062 1.953125 -3.71875 C 1.785156 -3.40625 1.703125 -3.046875 1.703125 -2.640625 C 1.703125 -2.242188 1.785156 -1.882812 1.953125 -1.5625 C 2.128906 -1.25 2.363281 -1.003906 2.65625 -0.828125 C 2.957031 -0.660156 3.296875 -0.578125 3.671875 -0.578125 Z M 3.671875 -0.578125 "/></g></g></g><g fill="#ffde59" fill-opacity="1"><g transform="translate(247.397557, 136.362029)"><g><path d="M 2.84375 -5.328125 C 3.539062 -5.328125 4.070312 -5.15625 4.4375 -4.8125 C 4.800781 -4.46875 4.984375 -3.957031 4.984375 -3.28125 L 4.984375 0 L 4.3125 0 L 4.3125 -0.828125 C 4.144531 -0.546875 3.90625 -0.328125 3.59375 -0.171875 C 3.28125 -0.0234375 2.910156 0.046875 2.484375 0.046875 C 1.890625 0.046875 1.414062 -0.09375 1.0625 -0.375 C 0.71875 -0.65625 0.546875 -1.023438 0.546875 -1.484375 C 0.546875 -1.929688 0.707031 -2.289062 1.03125 -2.5625 C 1.363281 -2.84375 1.882812 -2.984375 2.59375 -2.984375 L 4.28125 -2.984375 L 4.28125 -3.3125 C 4.28125 -3.769531 4.148438 -4.113281 3.890625 -4.34375 C 3.640625 -4.582031 3.269531 -4.703125 2.78125 -4.703125 C 2.445312 -4.703125 2.125 -4.644531 1.8125 -4.53125 C 1.5 -4.425781 1.234375 -4.273438 1.015625 -4.078125 L 0.6875 -4.625 C 0.957031 -4.84375 1.28125 -5.015625 1.65625 -5.140625 C 2.03125 -5.265625 2.425781 -5.328125 2.84375 -5.328125 Z M 2.59375 -0.515625 C 3 -0.515625 3.34375 -0.601562 3.625 -0.78125 C 3.914062 -0.96875 4.132812 -1.238281 4.28125 -1.59375 L 4.28125 -2.453125 L 2.609375 -2.453125 C 1.703125 -2.453125 1.25 -2.140625 1.25 -1.515625 C 1.25 -1.203125 1.367188 -0.957031 1.609375 -0.78125 C 1.847656 -0.601562 2.175781 -0.515625 2.59375 -0.515625 Z M 2.59375 -0.515625 "/></g></g></g><g fill="#ffde59" fill-opacity="1"><g transform="translate(254.692764, 136.362029)"><g><path d="M 1 -5.296875 L 1.703125 -5.296875 L 1.703125 0 L 1 0 Z M 1.359375 -6.453125 C 1.210938 -6.453125 1.085938 -6.5 0.984375 -6.59375 C 0.878906 -6.695312 0.828125 -6.820312 0.828125 -6.96875 C 0.828125 -7.101562 0.878906 -7.21875 0.984375 -7.3125 C 1.085938 -7.414062 1.210938 -7.46875 1.359375 -7.46875 C 1.503906 -7.46875 1.625 -7.414062 1.71875 -7.3125 C 1.820312 -7.21875 1.875 -7.101562 1.875 -6.96875 C 1.875 -6.820312 1.820312 -6.695312 1.71875 -6.59375 C 1.625 -6.5 1.503906 -6.453125 1.359375 -6.453125 Z M 1.359375 -6.453125 "/></g></g></g><g fill="#ffde59" fill-opacity="1"><g transform="translate(258.758528, 136.362029)"><g><path d="M 3.6875 -5.328125 C 4.351562 -5.328125 4.878906 -5.132812 5.265625 -4.75 C 5.660156 -4.363281 5.859375 -3.800781 5.859375 -3.0625 L 5.859375 0 L 5.15625 0 L 5.15625 -3 C 5.15625 -3.550781 5.015625 -3.96875 4.734375 -4.25 C 4.460938 -4.539062 4.070312 -4.6875 3.5625 -4.6875 C 2.988281 -4.6875 2.535156 -4.515625 2.203125 -4.171875 C 1.867188 -3.835938 1.703125 -3.375 1.703125 -2.78125 L 1.703125 0 L 1 0 L 1 -5.296875 L 1.6875 -5.296875 L 1.6875 -4.3125 C 1.875 -4.632812 2.140625 -4.882812 2.484375 -5.0625 C 2.835938 -5.238281 3.238281 -5.328125 3.6875 -5.328125 Z M 3.6875 -5.328125 "/></g></g></g><g fill="#ffde59" fill-opacity="1"><g transform="translate(266.929, 136.362029)"><g><path d="M 5.609375 -2.421875 L 1.171875 -2.421875 C 1.210938 -1.867188 1.425781 -1.421875 1.8125 -1.078125 C 2.195312 -0.742188 2.679688 -0.578125 3.265625 -0.578125 C 3.585938 -0.578125 3.882812 -0.632812 4.15625 -0.75 C 4.4375 -0.875 4.675781 -1.050781 4.875 -1.28125 L 5.28125 -0.8125 C 5.050781 -0.53125 4.757812 -0.316406 4.40625 -0.171875 C 4.050781 -0.0234375 3.660156 0.046875 3.234375 0.046875 C 2.691406 0.046875 2.210938 -0.0664062 1.796875 -0.296875 C 1.378906 -0.523438 1.050781 -0.84375 0.8125 -1.25 C 0.582031 -1.664062 0.46875 -2.128906 0.46875 -2.640625 C 0.46875 -3.160156 0.578125 -3.625 0.796875 -4.03125 C 1.023438 -4.445312 1.332031 -4.765625 1.71875 -4.984375 C 2.113281 -5.210938 2.554688 -5.328125 3.046875 -5.328125 C 3.535156 -5.328125 3.972656 -5.210938 4.359375 -4.984375 C 4.753906 -4.765625 5.0625 -4.453125 5.28125 -4.046875 C 5.5 -3.640625 5.609375 -3.171875 5.609375 -2.640625 Z M 3.046875 -4.71875 C 2.535156 -4.71875 2.109375 -4.554688 1.765625 -4.234375 C 1.421875 -3.910156 1.222656 -3.484375 1.171875 -2.953125 L 4.9375 -2.953125 C 4.882812 -3.484375 4.6875 -3.910156 4.34375 -4.234375 C 4 -4.554688 3.566406 -4.71875 3.046875 -4.71875 Z M 3.046875 -4.71875 "/></g></g></g></svg>